ISO-10303-21;
HEADER;
/* Generated by software containing ST-Developer
 * from STEP Tools, Inc. (www.steptools.com) 
 */
/* OPTION: using custom renumber hook */

FILE_DESCRIPTION(
/* description */ ('STEP AP242 Edition 2',
'CAx-IF Rec.Pracs.---Representation and Presentation of Product Manufa
cturing Information (PMI)---4.0---2014-10-13',
'CAx-IF Rec.Pracs.---3D Tessellated Geometry---0.4---2014-09-14','2;1',
'CAx-IF Rec.Pracs.---User Defined Attributes---1.5---2016-08-15'),
/* implementation_level */ '2;1');

FILE_NAME(
/* name */ 'Part Studio 1',
/* time_stamp */ '2026-08-28T03:59:14Z',
/* author */ (''),
/* organization */ (''),
/* preprocessor_version */ 'ST-DEVELOPER v20',
/* originating_system */ 'ONSHAPE BY PTC INC, 1.219',
/* authorisation */ '  ');

FILE_SCHEMA (('AP242_MANAGED_MODEL_BASED_3D_ENGINEERING_MIM_LF { 1 0 10303 442 3 1 4 }'));
ENDSEC;

DATA;
#10=LINE('',#965,#50);
#11=LINE('',#968,#51);
#12=LINE('',#970,#52);
#13=LINE('',#972,#53);
#14=LINE('',#974,#54);
#15=LINE('',#976,#55);
#16=LINE('',#978,#56);
#17=LINE('',#980,#57);
#18=LINE('',#982,#58);
#19=LINE('',#985,#59);
#20=LINE('',#987,#60);
#21=LINE('',#989,#61);
#22=LINE('',#991,#62);
#23=LINE('',#994,#63);
#24=LINE('',#996,#64);
#25=LINE('',#998,#65);
#26=LINE('',#1000,#66);
#27=LINE('',#1003,#67);
#28=LINE('',#1005,#68);
#29=LINE('',#1007,#69);
#30=LINE('',#1009,#70);
#31=LINE('',#1011,#71);
#32=LINE('',#1013,#72);
#33=LINE('',#1015,#73);
#34=LINE('',#1017,#74);
#35=LINE('',#1019,#75);
#36=LINE('',#1021,#76);
#37=LINE('',#1023,#77);
#38=LINE('',#1025,#78);
#39=LINE('',#1027,#79);
#40=LINE('',#1029,#80);
#41=LINE('',#1030,#81);
#42=LINE('',#1052,#82);
#43=LINE('',#1055,#83);
#44=LINE('',#1057,#84);
#45=LINE('',#1059,#85);
#46=LINE('',#1065,#86);
#47=LINE('',#1066,#87);
#48=LINE('',#1074,#88);
#49=LINE('',#1076,#89);
#50=VECTOR('',#787,1.);
#51=VECTOR('',#788,1.);
#52=VECTOR('',#789,1.);
#53=VECTOR('',#790,1.);
#54=VECTOR('',#791,1.);
#55=VECTOR('',#792,1.);
#56=VECTOR('',#793,1.);
#57=VECTOR('',#794,1.);
#58=VECTOR('',#797,1.);
#59=VECTOR('',#798,1.);
#60=VECTOR('',#799,1.);
#61=VECTOR('',#800,1.);
#62=VECTOR('',#803,1.);
#63=VECTOR('',#804,1.);
#64=VECTOR('',#805,1.);
#65=VECTOR('',#806,1.);
#66=VECTOR('',#809,1.);
#67=VECTOR('',#810,1.);
#68=VECTOR('',#811,1.);
#69=VECTOR('',#812,1.);
#70=VECTOR('',#813,1.);
#71=VECTOR('',#814,1.);
#72=VECTOR('',#815,1.);
#73=VECTOR('',#816,1.);
#74=VECTOR('',#819,1.);
#75=VECTOR('',#820,1.);
#76=VECTOR('',#821,1.);
#77=VECTOR('',#824,1.);
#78=VECTOR('',#825,1.);
#79=VECTOR('',#826,1.);
#80=VECTOR('',#829,1.);
#81=VECTOR('',#830,1.);
#82=VECTOR('',#857,1.);
#83=VECTOR('',#858,1.);
#84=VECTOR('',#859,1.);
#85=VECTOR('',#860,1.);
#86=VECTOR('',#871,1.);
#87=VECTOR('',#872,1.);
#88=VECTOR('',#887,1.);
#89=VECTOR('',#890,1.);
#90=SHAPE_REPRESENTATION_RELATIONSHIP('','',#667,#95);
#91=SHAPE_REPRESENTATION_RELATIONSHIP('','',#668,#96);
#92=SHAPE_REPRESENTATION_RELATIONSHIP('','',#669,#97);
#93=SHAPE_REPRESENTATION_RELATIONSHIP('','',#670,#98);
#94=SHAPE_REPRESENTATION_RELATIONSHIP('','',#671,#99);
#95=ADVANCED_BREP_SHAPE_REPRESENTATION('',(#657),#1113);
#96=ADVANCED_BREP_SHAPE_REPRESENTATION('',(#658),#1114);
#97=ADVANCED_BREP_SHAPE_REPRESENTATION('',(#659),#1115);
#98=ADVANCED_BREP_SHAPE_REPRESENTATION('',(#660),#1116);
#99=ADVANCED_BREP_SHAPE_REPRESENTATION('',(#661),#1117);
#100=PLANE('',#679);
#101=PLANE('',#680);
#102=PLANE('',#688);
#103=PLANE('',#689);
#104=PLANE('',#691);
#105=PLANE('',#692);
#106=PLANE('',#693);
#107=PLANE('',#694);
#108=PLANE('',#695);
#109=PLANE('',#696);
#110=PLANE('',#697);
#111=PLANE('',#710);
#112=PLANE('',#711);
#113=PLANE('',#716);
#114=PLANE('',#721);
#115=PLANE('',#722);
#116=PLANE('',#723);
#117=PLANE('',#724);
#118=PLANE('',#736);
#119=PLANE('',#737);
#120=PLANE('',#745);
#121=PLANE('',#746);
#122=ORIENTED_EDGE('',*,*,#266,.T.);
#123=ORIENTED_EDGE('',*,*,#267,.F.);
#124=ORIENTED_EDGE('',*,*,#268,.F.);
#125=ORIENTED_EDGE('',*,*,#269,.T.);
#126=ORIENTED_EDGE('',*,*,#266,.F.);
#127=ORIENTED_EDGE('',*,*,#268,.T.);
#128=ORIENTED_EDGE('',*,*,#267,.T.);
#129=ORIENTED_EDGE('',*,*,#269,.F.);
#130=ORIENTED_EDGE('',*,*,#270,.T.);
#131=ORIENTED_EDGE('',*,*,#271,.F.);
#132=ORIENTED_EDGE('',*,*,#272,.F.);
#133=ORIENTED_EDGE('',*,*,#273,.T.);
#134=ORIENTED_EDGE('',*,*,#270,.F.);
#135=ORIENTED_EDGE('',*,*,#272,.T.);
#136=ORIENTED_EDGE('',*,*,#271,.T.);
#137=ORIENTED_EDGE('',*,*,#273,.F.);
#138=ORIENTED_EDGE('',*,*,#274,.T.);
#139=ORIENTED_EDGE('',*,*,#275,.T.);
#140=ORIENTED_EDGE('',*,*,#276,.T.);
#141=ORIENTED_EDGE('',*,*,#277,.T.);
#142=ORIENTED_EDGE('',*,*,#278,.F.);
#143=ORIENTED_EDGE('',*,*,#279,.F.);
#144=ORIENTED_EDGE('',*,*,#280,.T.);
#145=ORIENTED_EDGE('',*,*,#281,.F.);
#146=ORIENTED_EDGE('',*,*,#282,.F.);
#147=ORIENTED_EDGE('',*,*,#283,.T.);
#148=ORIENTED_EDGE('',*,*,#284,.T.);
#149=ORIENTED_EDGE('',*,*,#285,.T.);
#150=ORIENTED_EDGE('',*,*,#286,.T.);
#151=ORIENTED_EDGE('',*,*,#287,.T.);
#152=ORIENTED_EDGE('',*,*,#288,.F.);
#153=ORIENTED_EDGE('',*,*,#289,.T.);
#154=ORIENTED_EDGE('',*,*,#290,.T.);
#155=ORIENTED_EDGE('',*,*,#291,.T.);
#156=ORIENTED_EDGE('',*,*,#292,.F.);
#157=ORIENTED_EDGE('',*,*,#293,.F.);
#158=ORIENTED_EDGE('',*,*,#294,.F.);
#159=ORIENTED_EDGE('',*,*,#295,.T.);
#160=ORIENTED_EDGE('',*,*,#296,.F.);
#161=ORIENTED_EDGE('',*,*,#297,.T.);
#162=ORIENTED_EDGE('',*,*,#298,.F.);
#163=ORIENTED_EDGE('',*,*,#299,.F.);
#164=ORIENTED_EDGE('',*,*,#300,.T.);
#165=ORIENTED_EDGE('',*,*,#279,.T.);
#166=ORIENTED_EDGE('',*,*,#299,.T.);
#167=ORIENTED_EDGE('',*,*,#301,.T.);
#168=ORIENTED_EDGE('',*,*,#302,.F.);
#169=ORIENTED_EDGE('',*,*,#303,.F.);
#170=ORIENTED_EDGE('',*,*,#302,.T.);
#171=ORIENTED_EDGE('',*,*,#304,.T.);
#172=ORIENTED_EDGE('',*,*,#277,.F.);
#173=ORIENTED_EDGE('',*,*,#305,.F.);
#174=ORIENTED_EDGE('',*,*,#306,.T.);
#175=ORIENTED_EDGE('',*,*,#307,.F.);
#176=ORIENTED_EDGE('',*,*,#308,.T.);
#177=ORIENTED_EDGE('',*,*,#309,.F.);
#178=ORIENTED_EDGE('',*,*,#310,.T.);
#179=ORIENTED_EDGE('',*,*,#311,.F.);
#180=ORIENTED_EDGE('',*,*,#312,.T.);
#181=ORIENTED_EDGE('',*,*,#313,.F.);
#182=ORIENTED_EDGE('',*,*,#314,.T.);
#183=ORIENTED_EDGE('',*,*,#315,.T.);
#184=ORIENTED_EDGE('',*,*,#316,.F.);
#185=ORIENTED_EDGE('',*,*,#317,.T.);
#186=ORIENTED_EDGE('',*,*,#292,.T.);
#187=ORIENTED_EDGE('',*,*,#318,.T.);
#188=ORIENTED_EDGE('',*,*,#314,.F.);
#189=ORIENTED_EDGE('',*,*,#319,.T.);
#190=ORIENTED_EDGE('',*,*,#284,.F.);
#191=ORIENTED_EDGE('',*,*,#320,.T.);
#192=ORIENTED_EDGE('',*,*,#288,.T.);
#193=ORIENTED_EDGE('',*,*,#321,.T.);
#194=ORIENTED_EDGE('',*,*,#296,.T.);
#195=ORIENTED_EDGE('',*,*,#322,.T.);
#196=ORIENTED_EDGE('',*,*,#280,.F.);
#197=ORIENTED_EDGE('',*,*,#300,.F.);
#198=ORIENTED_EDGE('',*,*,#303,.T.);
#199=ORIENTED_EDGE('',*,*,#305,.T.);
#200=ORIENTED_EDGE('',*,*,#276,.F.);
#201=ORIENTED_EDGE('',*,*,#323,.F.);
#202=ORIENTED_EDGE('',*,*,#312,.F.);
#203=ORIENTED_EDGE('',*,*,#310,.F.);
#204=ORIENTED_EDGE('',*,*,#308,.F.);
#205=ORIENTED_EDGE('',*,*,#306,.F.);
#206=ORIENTED_EDGE('',*,*,#313,.T.);
#207=ORIENTED_EDGE('',*,*,#311,.T.);
#208=ORIENTED_EDGE('',*,*,#309,.T.);
#209=ORIENTED_EDGE('',*,*,#307,.T.);
#210=ORIENTED_EDGE('',*,*,#316,.T.);
#211=ORIENTED_EDGE('',*,*,#324,.T.);
#212=ORIENTED_EDGE('',*,*,#290,.F.);
#213=ORIENTED_EDGE('',*,*,#325,.T.);
#214=ORIENTED_EDGE('',*,*,#286,.F.);
#215=ORIENTED_EDGE('',*,*,#326,.T.);
#216=ORIENTED_EDGE('',*,*,#282,.T.);
#217=ORIENTED_EDGE('',*,*,#327,.T.);
#218=ORIENTED_EDGE('',*,*,#301,.F.);
#219=ORIENTED_EDGE('',*,*,#298,.T.);
#220=ORIENTED_EDGE('',*,*,#278,.T.);
#221=ORIENTED_EDGE('',*,*,#304,.F.);
#222=ORIENTED_EDGE('',*,*,#323,.T.);
#223=ORIENTED_EDGE('',*,*,#275,.F.);
#224=ORIENTED_EDGE('',*,*,#328,.F.);
#225=ORIENTED_EDGE('',*,*,#293,.T.);
#226=ORIENTED_EDGE('',*,*,#322,.F.);
#227=ORIENTED_EDGE('',*,*,#295,.F.);
#228=ORIENTED_EDGE('',*,*,#329,.T.);
#229=ORIENTED_EDGE('',*,*,#281,.T.);
#230=ORIENTED_EDGE('',*,*,#294,.T.);
#231=ORIENTED_EDGE('',*,*,#328,.T.);
#232=ORIENTED_EDGE('',*,*,#274,.F.);
#233=ORIENTED_EDGE('',*,*,#329,.F.);
#234=ORIENTED_EDGE('',*,*,#318,.F.);
#235=ORIENTED_EDGE('',*,*,#291,.F.);
#236=ORIENTED_EDGE('',*,*,#324,.F.);
#237=ORIENTED_EDGE('',*,*,#315,.F.);
#238=ORIENTED_EDGE('',*,*,#321,.F.);
#239=ORIENTED_EDGE('',*,*,#287,.F.);
#240=ORIENTED_EDGE('',*,*,#325,.F.);
#241=ORIENTED_EDGE('',*,*,#297,.F.);
#242=ORIENTED_EDGE('',*,*,#320,.F.);
#243=ORIENTED_EDGE('',*,*,#283,.F.);
#244=ORIENTED_EDGE('',*,*,#326,.F.);
#245=ORIENTED_EDGE('',*,*,#289,.F.);
#246=ORIENTED_EDGE('',*,*,#319,.F.);
#247=ORIENTED_EDGE('',*,*,#317,.F.);
#248=ORIENTED_EDGE('',*,*,#327,.F.);
#249=ORIENTED_EDGE('',*,*,#285,.F.);
#250=ORIENTED_EDGE('',*,*,#330,.T.);
#251=ORIENTED_EDGE('',*,*,#331,.F.);
#252=ORIENTED_EDGE('',*,*,#332,.F.);
#253=ORIENTED_EDGE('',*,*,#333,.T.);
#254=ORIENTED_EDGE('',*,*,#330,.F.);
#255=ORIENTED_EDGE('',*,*,#332,.T.);
#256=ORIENTED_EDGE('',*,*,#331,.T.);
#257=ORIENTED_EDGE('',*,*,#333,.F.);
#258=ORIENTED_EDGE('',*,*,#334,.T.);
#259=ORIENTED_EDGE('',*,*,#335,.F.);
#260=ORIENTED_EDGE('',*,*,#336,.F.);
#261=ORIENTED_EDGE('',*,*,#337,.T.);
#262=ORIENTED_EDGE('',*,*,#334,.F.);
#263=ORIENTED_EDGE('',*,*,#336,.T.);
#264=ORIENTED_EDGE('',*,*,#335,.T.);
#265=ORIENTED_EDGE('',*,*,#337,.F.);
#266=EDGE_CURVE('',#338,#338,#394,.T.);
#267=EDGE_CURVE('',#339,#339,#395,.T.);
#268=EDGE_CURVE('',#340,#340,#396,.T.);
#269=EDGE_CURVE('',#341,#341,#397,.T.);
#270=EDGE_CURVE('',#342,#342,#398,.T.);
#271=EDGE_CURVE('',#343,#343,#399,.T.);
#272=EDGE_CURVE('',#344,#344,#400,.T.);
#273=EDGE_CURVE('',#345,#345,#401,.T.);
#274=EDGE_CURVE('',#346,#347,#10,.T.);
#275=EDGE_CURVE('',#347,#348,#11,.T.);
#276=EDGE_CURVE('',#348,#349,#12,.T.);
#277=EDGE_CURVE('',#349,#350,#13,.T.);
#278=EDGE_CURVE('',#351,#350,#14,.T.);
#279=EDGE_CURVE('',#352,#351,#15,.T.);
#280=EDGE_CURVE('',#352,#353,#16,.T.);
#281=EDGE_CURVE('',#346,#353,#17,.T.);
#282=EDGE_CURVE('',#354,#355,#18,.T.);
#283=EDGE_CURVE('',#354,#356,#19,.F.);
#284=EDGE_CURVE('',#356,#357,#20,.T.);
#285=EDGE_CURVE('',#357,#355,#21,.T.);
#286=EDGE_CURVE('',#358,#359,#22,.T.);
#287=EDGE_CURVE('',#359,#360,#23,.F.);
#288=EDGE_CURVE('',#361,#360,#24,.T.);
#289=EDGE_CURVE('',#361,#358,#25,.T.);
#290=EDGE_CURVE('',#362,#363,#26,.T.);
#291=EDGE_CURVE('',#363,#364,#27,.F.);
#292=EDGE_CURVE('',#365,#364,#28,.T.);
#293=EDGE_CURVE('',#366,#365,#29,.T.);
#294=EDGE_CURVE('',#367,#366,#30,.T.);
#295=EDGE_CURVE('',#367,#368,#31,.T.);
#296=EDGE_CURVE('',#369,#368,#32,.T.);
#297=EDGE_CURVE('',#369,#362,#33,.T.);
#298=EDGE_CURVE('',#370,#351,#34,.T.);
#299=EDGE_CURVE('',#371,#370,#35,.T.);
#300=EDGE_CURVE('',#371,#352,#36,.T.);
#301=EDGE_CURVE('',#370,#372,#37,.T.);
#302=EDGE_CURVE('',#373,#372,#38,.T.);
#303=EDGE_CURVE('',#371,#373,#39,.T.);
#304=EDGE_CURVE('',#372,#350,#40,.T.);
#305=EDGE_CURVE('',#373,#349,#41,.T.);
#306=EDGE_CURVE('',#374,#374,#402,.T.);
#307=EDGE_CURVE('',#375,#375,#403,.T.);
#308=EDGE_CURVE('',#376,#376,#404,.T.);
#309=EDGE_CURVE('',#377,#377,#405,.T.);
#310=EDGE_CURVE('',#378,#378,#406,.T.);
#311=EDGE_CURVE('',#379,#379,#407,.T.);
#312=EDGE_CURVE('',#380,#380,#408,.T.);
#313=EDGE_CURVE('',#381,#381,#409,.T.);
#314=EDGE_CURVE('',#382,#383,#42,.T.);
#315=EDGE_CURVE('',#383,#384,#43,.T.);
#316=EDGE_CURVE('',#385,#384,#44,.T.);
#317=EDGE_CURVE('',#385,#382,#45,.F.);
#318=EDGE_CURVE('',#364,#383,#410,.T.);
#319=EDGE_CURVE('',#382,#357,#411,.T.);
#320=EDGE_CURVE('',#356,#361,#412,.T.);
#321=EDGE_CURVE('',#360,#369,#413,.T.);
#322=EDGE_CURVE('',#368,#353,#46,.T.);
#323=EDGE_CURVE('',#365,#348,#47,.T.);
#324=EDGE_CURVE('',#384,#363,#414,.F.);
#325=EDGE_CURVE('',#362,#359,#415,.F.);
#326=EDGE_CURVE('',#358,#354,#416,.F.);
#327=EDGE_CURVE('',#355,#385,#417,.F.);
#328=EDGE_CURVE('',#366,#347,#48,.T.);
#329=EDGE_CURVE('',#367,#346,#49,.T.);
#330=EDGE_CURVE('',#386,#386,#418,.T.);
#331=EDGE_CURVE('',#387,#387,#419,.T.);
#332=EDGE_CURVE('',#388,#388,#420,.T.);
#333=EDGE_CURVE('',#389,#389,#421,.T.);
#334=EDGE_CURVE('',#390,#390,#422,.T.);
#335=EDGE_CURVE('',#391,#391,#423,.T.);
#336=EDGE_CURVE('',#392,#392,#424,.T.);
#337=EDGE_CURVE('',#393,#393,#425,.T.);
#338=VERTEX_POINT('',#940);
#339=VERTEX_POINT('',#942);
#340=VERTEX_POINT('',#945);
#341=VERTEX_POINT('',#947);
#342=VERTEX_POINT('',#953);
#343=VERTEX_POINT('',#955);
#344=VERTEX_POINT('',#958);
#345=VERTEX_POINT('',#960);
#346=VERTEX_POINT('',#966);
#347=VERTEX_POINT('',#967);
#348=VERTEX_POINT('',#969);
#349=VERTEX_POINT('',#971);
#350=VERTEX_POINT('',#973);
#351=VERTEX_POINT('',#975);
#352=VERTEX_POINT('',#977);
#353=VERTEX_POINT('',#979);
#354=VERTEX_POINT('',#983);
#355=VERTEX_POINT('',#984);
#356=VERTEX_POINT('',#986);
#357=VERTEX_POINT('',#988);
#358=VERTEX_POINT('',#992);
#359=VERTEX_POINT('',#993);
#360=VERTEX_POINT('',#995);
#361=VERTEX_POINT('',#997);
#362=VERTEX_POINT('',#1001);
#363=VERTEX_POINT('',#1002);
#364=VERTEX_POINT('',#1004);
#365=VERTEX_POINT('',#1006);
#366=VERTEX_POINT('',#1008);
#367=VERTEX_POINT('',#1010);
#368=VERTEX_POINT('',#1012);
#369=VERTEX_POINT('',#1014);
#370=VERTEX_POINT('',#1018);
#371=VERTEX_POINT('',#1020);
#372=VERTEX_POINT('',#1024);
#373=VERTEX_POINT('',#1026);
#374=VERTEX_POINT('',#1033);
#375=VERTEX_POINT('',#1035);
#376=VERTEX_POINT('',#1038);
#377=VERTEX_POINT('',#1040);
#378=VERTEX_POINT('',#1043);
#379=VERTEX_POINT('',#1045);
#380=VERTEX_POINT('',#1048);
#381=VERTEX_POINT('',#1050);
#382=VERTEX_POINT('',#1053);
#383=VERTEX_POINT('',#1054);
#384=VERTEX_POINT('',#1056);
#385=VERTEX_POINT('',#1058);
#386=VERTEX_POINT('',#1085);
#387=VERTEX_POINT('',#1087);
#388=VERTEX_POINT('',#1090);
#389=VERTEX_POINT('',#1092);
#390=VERTEX_POINT('',#1098);
#391=VERTEX_POINT('',#1100);
#392=VERTEX_POINT('',#1103);
#393=VERTEX_POINT('',#1105);
#394=CIRCLE('',#674,0.0017);
#395=CIRCLE('',#675,0.0017);
#396=CIRCLE('',#677,0.003);
#397=CIRCLE('',#678,0.003);
#398=CIRCLE('',#683,0.0017);
#399=CIRCLE('',#684,0.0017);
#400=CIRCLE('',#686,0.003);
#401=CIRCLE('',#687,0.003);
#402=CIRCLE('',#699,0.003);
#403=CIRCLE('',#700,0.003);
#404=CIRCLE('',#702,0.003);
#405=CIRCLE('',#703,0.003);
#406=CIRCLE('',#705,0.003);
#407=CIRCLE('',#706,0.003);
#408=CIRCLE('',#708,0.003);
#409=CIRCLE('',#709,0.003);
#410=CIRCLE('',#712,0.005);
#411=CIRCLE('',#713,0.005);
#412=CIRCLE('',#714,0.005);
#413=CIRCLE('',#715,0.005);
#414=CIRCLE('',#717,0.005);
#415=CIRCLE('',#718,0.005);
#416=CIRCLE('',#719,0.005);
#417=CIRCLE('',#720,0.005);
#418=CIRCLE('',#731,0.0017);
#419=CIRCLE('',#732,0.0017);
#420=CIRCLE('',#734,0.003);
#421=CIRCLE('',#735,0.003);
#422=CIRCLE('',#740,0.0017);
#423=CIRCLE('',#741,0.0017);
#424=CIRCLE('',#743,0.003);
#425=CIRCLE('',#744,0.003);
#426=EDGE_LOOP('',(#122));
#427=EDGE_LOOP('',(#123));
#428=EDGE_LOOP('',(#124));
#429=EDGE_LOOP('',(#125));
#430=EDGE_LOOP('',(#126));
#431=EDGE_LOOP('',(#127));
#432=EDGE_LOOP('',(#128));
#433=EDGE_LOOP('',(#129));
#434=EDGE_LOOP('',(#130));
#435=EDGE_LOOP('',(#131));
#436=EDGE_LOOP('',(#132));
#437=EDGE_LOOP('',(#133));
#438=EDGE_LOOP('',(#134));
#439=EDGE_LOOP('',(#135));
#440=EDGE_LOOP('',(#136));
#441=EDGE_LOOP('',(#137));
#442=EDGE_LOOP('',(#138,#139,#140,#141,#142,#143,#144,#145));
#443=EDGE_LOOP('',(#146,#147,#148,#149));
#444=EDGE_LOOP('',(#150,#151,#152,#153));
#445=EDGE_LOOP('',(#154,#155,#156,#157,#158,#159,#160,#161));
#446=EDGE_LOOP('',(#162,#163,#164,#165));
#447=EDGE_LOOP('',(#166,#167,#168,#169));
#448=EDGE_LOOP('',(#170,#171,#172,#173));
#449=EDGE_LOOP('',(#174));
#450=EDGE_LOOP('',(#175));
#451=EDGE_LOOP('',(#176));
#452=EDGE_LOOP('',(#177));
#453=EDGE_LOOP('',(#178));
#454=EDGE_LOOP('',(#179));
#455=EDGE_LOOP('',(#180));
#456=EDGE_LOOP('',(#181));
#457=EDGE_LOOP('',(#182,#183,#184,#185));
#458=EDGE_LOOP('',(#186,#187,#188,#189,#190,#191,#192,#193,#194,#195,#196,
#197,#198,#199,#200,#201));
#459=EDGE_LOOP('',(#202));
#460=EDGE_LOOP('',(#203));
#461=EDGE_LOOP('',(#204));
#462=EDGE_LOOP('',(#205));
#463=EDGE_LOOP('',(#206));
#464=EDGE_LOOP('',(#207));
#465=EDGE_LOOP('',(#208));
#466=EDGE_LOOP('',(#209));
#467=EDGE_LOOP('',(#210,#211,#212,#213,#214,#215,#216,#217));
#468=EDGE_LOOP('',(#218,#219,#220,#221));
#469=EDGE_LOOP('',(#222,#223,#224,#225));
#470=EDGE_LOOP('',(#226,#227,#228,#229));
#471=EDGE_LOOP('',(#230,#231,#232,#233));
#472=EDGE_LOOP('',(#234,#235,#236,#237));
#473=EDGE_LOOP('',(#238,#239,#240,#241));
#474=EDGE_LOOP('',(#242,#243,#244,#245));
#475=EDGE_LOOP('',(#246,#247,#248,#249));
#476=EDGE_LOOP('',(#250));
#477=EDGE_LOOP('',(#251));
#478=EDGE_LOOP('',(#252));
#479=EDGE_LOOP('',(#253));
#480=EDGE_LOOP('',(#254));
#481=EDGE_LOOP('',(#255));
#482=EDGE_LOOP('',(#256));
#483=EDGE_LOOP('',(#257));
#484=EDGE_LOOP('',(#258));
#485=EDGE_LOOP('',(#259));
#486=EDGE_LOOP('',(#260));
#487=EDGE_LOOP('',(#261));
#488=EDGE_LOOP('',(#262));
#489=EDGE_LOOP('',(#263));
#490=EDGE_LOOP('',(#264));
#491=EDGE_LOOP('',(#265));
#492=FACE_BOUND('',#426,.T.);
#493=FACE_BOUND('',#427,.T.);
#494=FACE_BOUND('',#428,.T.);
#495=FACE_BOUND('',#429,.T.);
#496=FACE_BOUND('',#430,.T.);
#497=FACE_BOUND('',#431,.T.);
#498=FACE_BOUND('',#432,.T.);
#499=FACE_BOUND('',#433,.T.);
#500=FACE_BOUND('',#434,.T.);
#501=FACE_BOUND('',#435,.T.);
#502=FACE_BOUND('',#436,.T.);
#503=FACE_BOUND('',#437,.T.);
#504=FACE_BOUND('',#438,.T.);
#505=FACE_BOUND('',#439,.T.);
#506=FACE_BOUND('',#440,.T.);
#507=FACE_BOUND('',#441,.T.);
#508=FACE_BOUND('',#442,.T.);
#509=FACE_BOUND('',#443,.T.);
#510=FACE_BOUND('',#444,.T.);
#511=FACE_BOUND('',#445,.T.);
#512=FACE_BOUND('',#446,.T.);
#513=FACE_BOUND('',#447,.T.);
#514=FACE_BOUND('',#448,.T.);
#515=FACE_BOUND('',#449,.T.);
#516=FACE_BOUND('',#450,.T.);
#517=FACE_BOUND('',#451,.T.);
#518=FACE_BOUND('',#452,.T.);
#519=FACE_BOUND('',#453,.T.);
#520=FACE_BOUND('',#454,.T.);
#521=FACE_BOUND('',#455,.T.);
#522=FACE_BOUND('',#456,.T.);
#523=FACE_BOUND('',#457,.T.);
#524=FACE_BOUND('',#458,.T.);
#525=FACE_BOUND('',#459,.T.);
#526=FACE_BOUND('',#460,.T.);
#527=FACE_BOUND('',#461,.T.);
#528=FACE_BOUND('',#462,.T.);
#529=FACE_BOUND('',#463,.T.);
#530=FACE_BOUND('',#464,.T.);
#531=FACE_BOUND('',#465,.T.);
#532=FACE_BOUND('',#466,.T.);
#533=FACE_BOUND('',#467,.T.);
#534=FACE_BOUND('',#468,.T.);
#535=FACE_BOUND('',#469,.T.);
#536=FACE_BOUND('',#470,.T.);
#537=FACE_BOUND('',#471,.T.);
#538=FACE_BOUND('',#472,.T.);
#539=FACE_BOUND('',#473,.T.);
#540=FACE_BOUND('',#474,.T.);
#541=FACE_BOUND('',#475,.T.);
#542=FACE_BOUND('',#476,.T.);
#543=FACE_BOUND('',#477,.T.);
#544=FACE_BOUND('',#478,.T.);
#545=FACE_BOUND('',#479,.T.);
#546=FACE_BOUND('',#480,.T.);
#547=FACE_BOUND('',#481,.T.);
#548=FACE_BOUND('',#482,.T.);
#549=FACE_BOUND('',#483,.T.);
#550=FACE_BOUND('',#484,.T.);
#551=FACE_BOUND('',#485,.T.);
#552=FACE_BOUND('',#486,.T.);
#553=FACE_BOUND('',#487,.T.);
#554=FACE_BOUND('',#488,.T.);
#555=FACE_BOUND('',#489,.T.);
#556=FACE_BOUND('',#490,.T.);
#557=FACE_BOUND('',#491,.T.);
#558=CYLINDRICAL_SURFACE('',#673,0.0017);
#559=CYLINDRICAL_SURFACE('',#676,0.003);
#560=CYLINDRICAL_SURFACE('',#682,0.0017);
#561=CYLINDRICAL_SURFACE('',#685,0.003);
#562=CYLINDRICAL_SURFACE('',#698,0.003);
#563=CYLINDRICAL_SURFACE('',#701,0.003);
#564=CYLINDRICAL_SURFACE('',#704,0.003);
#565=CYLINDRICAL_SURFACE('',#707,0.003);
#566=CYLINDRICAL_SURFACE('',#725,0.005);
#567=CYLINDRICAL_SURFACE('',#726,0.005);
#568=CYLINDRICAL_SURFACE('',#727,0.005);
#569=CYLINDRICAL_SURFACE('',#728,0.005);
#570=CYLINDRICAL_SURFACE('',#730,0.0017);
#571=CYLINDRICAL_SURFACE('',#733,0.003);
#572=CYLINDRICAL_SURFACE('',#739,0.0017);
#573=CYLINDRICAL_SURFACE('',#742,0.003);
#574=ADVANCED_FACE('',(#492,#493),#558,.F.);
#575=ADVANCED_FACE('',(#494,#495),#559,.T.);
#576=ADVANCED_FACE('',(#496,#497),#100,.T.);
#577=ADVANCED_FACE('',(#498,#499),#101,.F.);
#578=ADVANCED_FACE('',(#500,#501),#560,.F.);
#579=ADVANCED_FACE('',(#502,#503),#561,.T.);
#580=ADVANCED_FACE('',(#504,#505),#102,.T.);
#581=ADVANCED_FACE('',(#506,#507),#103,.F.);
#582=ADVANCED_FACE('',(#508),#104,.T.);
#583=ADVANCED_FACE('',(#509),#105,.T.);
#584=ADVANCED_FACE('',(#510),#106,.F.);
#585=ADVANCED_FACE('',(#511),#107,.F.);
#586=ADVANCED_FACE('',(#512),#108,.T.);
#587=ADVANCED_FACE('',(#513),#109,.F.);
#588=ADVANCED_FACE('',(#514),#110,.F.);
#589=ADVANCED_FACE('',(#515,#516),#562,.F.);
#590=ADVANCED_FACE('',(#517,#518),#563,.F.);
#591=ADVANCED_FACE('',(#519,#520),#564,.F.);
#592=ADVANCED_FACE('',(#521,#522),#565,.F.);
#593=ADVANCED_FACE('',(#523),#111,.T.);
#594=ADVANCED_FACE('',(#524,#525,#526,#527,#528),#112,.T.);
#595=ADVANCED_FACE('',(#529,#530,#531,#532,#533),#113,.F.);
#596=ADVANCED_FACE('',(#534),#114,.T.);
#597=ADVANCED_FACE('',(#535),#115,.F.);
#598=ADVANCED_FACE('',(#536),#116,.T.);
#599=ADVANCED_FACE('',(#537),#117,.T.);
#600=ADVANCED_FACE('',(#538),#566,.T.);
#601=ADVANCED_FACE('',(#539),#567,.T.);
#602=ADVANCED_FACE('',(#540),#568,.T.);
#603=ADVANCED_FACE('',(#541),#569,.T.);
#604=ADVANCED_FACE('',(#542,#543),#570,.F.);
#605=ADVANCED_FACE('',(#544,#545),#571,.T.);
#606=ADVANCED_FACE('',(#546,#547),#118,.T.);
#607=ADVANCED_FACE('',(#548,#549),#119,.F.);
#608=ADVANCED_FACE('',(#550,#551),#572,.F.);
#609=ADVANCED_FACE('',(#552,#553),#573,.T.);
#610=ADVANCED_FACE('',(#554,#555),#120,.T.);
#611=ADVANCED_FACE('',(#556,#557),#121,.F.);
#612=CLOSED_SHELL('',(#574,#575,#576,#577));
#613=CLOSED_SHELL('',(#578,#579,#580,#581));
#614=CLOSED_SHELL('',(#582,#583,#584,#585,#586,#587,#588,#589,#590,#591,
#592,#593,#594,#595,#596,#597,#598,#599,#600,#601,#602,#603));
#615=CLOSED_SHELL('',(#604,#605,#606,#607));
#616=CLOSED_SHELL('',(#608,#609,#610,#611));
#617=STYLED_ITEM('',(#622),#657);
#618=STYLED_ITEM('',(#623),#658);
#619=STYLED_ITEM('',(#624),#659);
#620=STYLED_ITEM('',(#625),#660);
#621=STYLED_ITEM('',(#626),#661);
#622=PRESENTATION_STYLE_ASSIGNMENT((#627));
#623=PRESENTATION_STYLE_ASSIGNMENT((#628));
#624=PRESENTATION_STYLE_ASSIGNMENT((#629));
#625=PRESENTATION_STYLE_ASSIGNMENT((#630));
#626=PRESENTATION_STYLE_ASSIGNMENT((#631));
#627=SURFACE_STYLE_USAGE(.BOTH.,#632);
#628=SURFACE_STYLE_USAGE(.BOTH.,#633);
#629=SURFACE_STYLE_USAGE(.BOTH.,#634);
#630=SURFACE_STYLE_USAGE(.BOTH.,#635);
#631=SURFACE_STYLE_USAGE(.BOTH.,#636);
#632=SURFACE_SIDE_STYLE('',(#637));
#633=SURFACE_SIDE_STYLE('',(#638));
#634=SURFACE_SIDE_STYLE('',(#639));
#635=SURFACE_SIDE_STYLE('',(#640));
#636=SURFACE_SIDE_STYLE('',(#641));
#637=SURFACE_STYLE_FILL_AREA(#642);
#638=SURFACE_STYLE_FILL_AREA(#643);
#639=SURFACE_STYLE_FILL_AREA(#644);
#640=SURFACE_STYLE_FILL_AREA(#645);
#641=SURFACE_STYLE_FILL_AREA(#646);
#642=FILL_AREA_STYLE('',(#647));
#643=FILL_AREA_STYLE('',(#648));
#644=FILL_AREA_STYLE('',(#649));
#645=FILL_AREA_STYLE('',(#650));
#646=FILL_AREA_STYLE('',(#651));
#647=FILL_AREA_STYLE_COLOUR('',#652);
#648=FILL_AREA_STYLE_COLOUR('',#653);
#649=FILL_AREA_STYLE_COLOUR('',#654);
#650=FILL_AREA_STYLE_COLOUR('',#655);
#651=FILL_AREA_STYLE_COLOUR('',#656);
#652=COLOUR_RGB('',0.917647058823529,0.917647058823529,0.917647058823529);
#653=COLOUR_RGB('',0.647058823529412,0.647058823529412,0.647058823529412);
#654=COLOUR_RGB('',0.768627450980392,0.886274509803922,0.952941176470588);
#655=COLOUR_RGB('',0.615686274509804,0.811764705882353,0.929411764705882);
#656=COLOUR_RGB('',0.231372549019608,0.380392156862745,0.705882352941177);
#657=MANIFOLD_SOLID_BREP('Part 4',#612);
#658=MANIFOLD_SOLID_BREP('Part 2',#613);
#659=MANIFOLD_SOLID_BREP('Part 5',#614);
#660=MANIFOLD_SOLID_BREP('Part 1',#615);
#661=MANIFOLD_SOLID_BREP('Part 3',#616);
#662=SHAPE_DEFINITION_REPRESENTATION(#1138,#667);
#663=SHAPE_DEFINITION_REPRESENTATION(#1139,#668);
#664=SHAPE_DEFINITION_REPRESENTATION(#1140,#669);
#665=SHAPE_DEFINITION_REPRESENTATION(#1141,#670);
#666=SHAPE_DEFINITION_REPRESENTATION(#1142,#671);
#667=SHAPE_REPRESENTATION('Part 4',(#672),#1113);
#668=SHAPE_REPRESENTATION('Part 2',(#681),#1114);
#669=SHAPE_REPRESENTATION('Part 5',(#690),#1115);
#670=SHAPE_REPRESENTATION('Part 1',(#729),#1116);
#671=SHAPE_REPRESENTATION('Part 3',(#738),#1117);
#672=AXIS2_PLACEMENT_3D('',#937,#747,#748);
#673=AXIS2_PLACEMENT_3D('',#938,#749,#750);
#674=AXIS2_PLACEMENT_3D('',#939,#751,#752);
#675=AXIS2_PLACEMENT_3D('',#941,#753,#754);
#676=AXIS2_PLACEMENT_3D('',#943,#755,#756);
#677=AXIS2_PLACEMENT_3D('',#944,#757,#758);
#678=AXIS2_PLACEMENT_3D('',#946,#759,#760);
#679=AXIS2_PLACEMENT_3D('',#948,#761,#762);
#680=AXIS2_PLACEMENT_3D('',#949,#763,#764);
#681=AXIS2_PLACEMENT_3D('',#950,#765,#766);
#682=AXIS2_PLACEMENT_3D('',#951,#767,#768);
#683=AXIS2_PLACEMENT_3D('',#952,#769,#770);
#684=AXIS2_PLACEMENT_3D('',#954,#771,#772);
#685=AXIS2_PLACEMENT_3D('',#956,#773,#774);
#686=AXIS2_PLACEMENT_3D('',#957,#775,#776);
#687=AXIS2_PLACEMENT_3D('',#959,#777,#778);
#688=AXIS2_PLACEMENT_3D('',#961,#779,#780);
#689=AXIS2_PLACEMENT_3D('',#962,#781,#782);
#690=AXIS2_PLACEMENT_3D('',#963,#783,#784);
#691=AXIS2_PLACEMENT_3D('',#964,#785,#786);
#692=AXIS2_PLACEMENT_3D('',#981,#795,#796);
#693=AXIS2_PLACEMENT_3D('',#990,#801,#802);
#694=AXIS2_PLACEMENT_3D('',#999,#807,#808);
#695=AXIS2_PLACEMENT_3D('',#1016,#817,#818);
#696=AXIS2_PLACEMENT_3D('',#1022,#822,#823);
#697=AXIS2_PLACEMENT_3D('',#1028,#827,#828);
#698=AXIS2_PLACEMENT_3D('',#1031,#831,#832);
#699=AXIS2_PLACEMENT_3D('',#1032,#833,#834);
#700=AXIS2_PLACEMENT_3D('',#1034,#835,#836);
#701=AXIS2_PLACEMENT_3D('',#1036,#837,#838);
#702=AXIS2_PLACEMENT_3D('',#1037,#839,#840);
#703=AXIS2_PLACEMENT_3D('',#1039,#841,#842);
#704=AXIS2_PLACEMENT_3D('',#1041,#843,#844);
#705=AXIS2_PLACEMENT_3D('',#1042,#845,#846);
#706=AXIS2_PLACEMENT_3D('',#1044,#847,#848);
#707=AXIS2_PLACEMENT_3D('',#1046,#849,#850);
#708=AXIS2_PLACEMENT_3D('',#1047,#851,#852);
#709=AXIS2_PLACEMENT_3D('',#1049,#853,#854);
#710=AXIS2_PLACEMENT_3D('',#1051,#855,#856);
#711=AXIS2_PLACEMENT_3D('',#1060,#861,#862);
#712=AXIS2_PLACEMENT_3D('',#1061,#863,#864);
#713=AXIS2_PLACEMENT_3D('',#1062,#865,#866);
#714=AXIS2_PLACEMENT_3D('',#1063,#867,#868);
#715=AXIS2_PLACEMENT_3D('',#1064,#869,#870);
#716=AXIS2_PLACEMENT_3D('',#1067,#873,#874);
#717=AXIS2_PLACEMENT_3D('',#1068,#875,#876);
#718=AXIS2_PLACEMENT_3D('',#1069,#877,#878);
#719=AXIS2_PLACEMENT_3D('',#1070,#879,#880);
#720=AXIS2_PLACEMENT_3D('',#1071,#881,#882);
#721=AXIS2_PLACEMENT_3D('',#1072,#883,#884);
#722=AXIS2_PLACEMENT_3D('',#1073,#885,#886);
#723=AXIS2_PLACEMENT_3D('',#1075,#888,#889);
#724=AXIS2_PLACEMENT_3D('',#1077,#891,#892);
#725=AXIS2_PLACEMENT_3D('',#1078,#893,#894);
#726=AXIS2_PLACEMENT_3D('',#1079,#895,#896);
#727=AXIS2_PLACEMENT_3D('',#1080,#897,#898);
#728=AXIS2_PLACEMENT_3D('',#1081,#899,#900);
#729=AXIS2_PLACEMENT_3D('',#1082,#901,#902);
#730=AXIS2_PLACEMENT_3D('',#1083,#903,#904);
#731=AXIS2_PLACEMENT_3D('',#1084,#905,#906);
#732=AXIS2_PLACEMENT_3D('',#1086,#907,#908);
#733=AXIS2_PLACEMENT_3D('',#1088,#909,#910);
#734=AXIS2_PLACEMENT_3D('',#1089,#911,#912);
#735=AXIS2_PLACEMENT_3D('',#1091,#913,#914);
#736=AXIS2_PLACEMENT_3D('',#1093,#915,#916);
#737=AXIS2_PLACEMENT_3D('',#1094,#917,#918);
#738=AXIS2_PLACEMENT_3D('',#1095,#919,#920);
#739=AXIS2_PLACEMENT_3D('',#1096,#921,#922);
#740=AXIS2_PLACEMENT_3D('',#1097,#923,#924);
#741=AXIS2_PLACEMENT_3D('',#1099,#925,#926);
#742=AXIS2_PLACEMENT_3D('',#1101,#927,#928);
#743=AXIS2_PLACEMENT_3D('',#1102,#929,#930);
#744=AXIS2_PLACEMENT_3D('',#1104,#931,#932);
#745=AXIS2_PLACEMENT_3D('',#1106,#933,#934);
#746=AXIS2_PLACEMENT_3D('',#1107,#935,#936);
#747=DIRECTION('',(0.,0.,1.));
#748=DIRECTION('',(1.,0.,0.));
#749=DIRECTION('',(0.,0.,-1.));
#750=DIRECTION('',(-1.,0.,0.));
#751=DIRECTION('',(0.,0.,1.));
#752=DIRECTION('',(1.,0.,0.));
#753=DIRECTION('',(0.,0.,1.));
#754=DIRECTION('',(1.,0.,0.));
#755=DIRECTION('',(0.,0.,-1.));
#756=DIRECTION('',(-1.,0.,0.));
#757=DIRECTION('',(0.,0.,1.));
#758=DIRECTION('',(1.,0.,0.));
#759=DIRECTION('',(0.,0.,1.));
#760=DIRECTION('',(1.,0.,0.));
#761=DIRECTION('',(0.,0.,1.));
#762=DIRECTION('',(1.,0.,0.));
#763=DIRECTION('',(0.,0.,1.));
#764=DIRECTION('',(1.,0.,0.));
#765=DIRECTION('',(0.,0.,1.));
#766=DIRECTION('',(1.,0.,0.));
#767=DIRECTION('',(0.,0.,-1.));
#768=DIRECTION('',(-1.,0.,0.));
#769=DIRECTION('',(0.,0.,1.));
#770=DIRECTION('',(1.,0.,0.));
#771=DIRECTION('',(0.,0.,1.));
#772=DIRECTION('',(1.,0.,0.));
#773=DIRECTION('',(0.,0.,-1.));
#774=DIRECTION('',(-1.,0.,0.));
#775=DIRECTION('',(0.,0.,1.));
#776=DIRECTION('',(1.,0.,0.));
#777=DIRECTION('',(0.,0.,1.));
#778=DIRECTION('',(1.,0.,0.));
#779=DIRECTION('',(0.,0.,1.));
#780=DIRECTION('',(1.,0.,0.));
#781=DIRECTION('',(0.,0.,1.));
#782=DIRECTION('',(1.,0.,0.));
#783=DIRECTION('',(0.,0.,1.));
#784=DIRECTION('',(1.,0.,0.));
#785=DIRECTION('',(0.,1.,0.));
#786=DIRECTION('',(0.,0.,1.));
#787=DIRECTION('',(1.,0.,0.));
#788=DIRECTION('',(0.,0.,1.));
#789=DIRECTION('',(1.,0.,0.));
#790=DIRECTION('',(0.,0.,-1.));
#791=DIRECTION('',(1.,0.,0.));
#792=DIRECTION('',(0.,0.,-1.));
#793=DIRECTION('',(1.,0.,0.));
#794=DIRECTION('',(0.,0.,1.));
#795=DIRECTION('',(0.,1.,0.));
#796=DIRECTION('',(0.,0.,1.));
#797=DIRECTION('',(1.,0.,0.));
#798=DIRECTION('',(0.,0.,-1.));
#799=DIRECTION('',(1.,0.,0.));
#800=DIRECTION('',(0.,0.,-1.));
#801=DIRECTION('',(1.,6.25689260947451E-17,0.));
#802=DIRECTION('',(-6.25689260947451E-17,1.,0.));
#803=DIRECTION('',(6.25689260947451E-17,-1.,0.));
#804=DIRECTION('',(0.,0.,-1.));
#805=DIRECTION('',(6.25689260947451E-17,-1.,0.));
#806=DIRECTION('',(0.,0.,-1.));
#807=DIRECTION('',(0.,1.,0.));
#808=DIRECTION('',(0.,0.,1.));
#809=DIRECTION('',(1.,0.,0.));
#810=DIRECTION('',(0.,0.,-1.));
#811=DIRECTION('',(1.,0.,0.));
#812=DIRECTION('',(0.,0.,1.));
#813=DIRECTION('',(1.,0.,0.));
#814=DIRECTION('',(0.,0.,1.));
#815=DIRECTION('',(1.,0.,0.));
#816=DIRECTION('',(0.,0.,-1.));
#817=DIRECTION('',(1.,7.55048302927881E-17,0.));
#818=DIRECTION('',(-7.55048302927881E-17,1.,0.));
#819=DIRECTION('',(7.55048302927881E-17,-1.,0.));
#820=DIRECTION('',(0.,0.,-1.));
#821=DIRECTION('',(7.55048302927881E-17,-1.,0.));
#822=DIRECTION('',(0.,1.,0.));
#823=DIRECTION('',(0.,0.,1.));
#824=DIRECTION('',(1.,0.,0.));
#825=DIRECTION('',(0.,0.,-1.));
#826=DIRECTION('',(1.,0.,0.));
#827=DIRECTION('',(1.,0.,0.));
#828=DIRECTION('',(0.,0.,-1.));
#829=DIRECTION('',(0.,-1.,0.));
#830=DIRECTION('',(0.,-1.,0.));
#831=DIRECTION('',(0.,0.,-1.));
#832=DIRECTION('',(-1.,0.,0.));
#833=DIRECTION('',(0.,0.,1.));
#834=DIRECTION('',(1.,0.,0.));
#835=DIRECTION('',(0.,0.,1.));
#836=DIRECTION('',(1.,0.,0.));
#837=DIRECTION('',(0.,0.,-1.));
#838=DIRECTION('',(-1.,0.,0.));
#839=DIRECTION('',(0.,0.,1.));
#840=DIRECTION('',(1.,0.,0.));
#841=DIRECTION('',(0.,0.,1.));
#842=DIRECTION('',(1.,0.,0.));
#843=DIRECTION('',(0.,0.,-1.));
#844=DIRECTION('',(-1.,0.,0.));
#845=DIRECTION('',(0.,0.,1.));
#846=DIRECTION('',(1.,0.,0.));
#847=DIRECTION('',(0.,0.,1.));
#848=DIRECTION('',(1.,0.,0.));
#849=DIRECTION('',(0.,0.,-1.));
#850=DIRECTION('',(-1.,0.,0.));
#851=DIRECTION('',(0.,0.,1.));
#852=DIRECTION('',(1.,0.,0.));
#853=DIRECTION('',(0.,0.,1.));
#854=DIRECTION('',(1.,0.,0.));
#855=DIRECTION('',(1.,6.25689260947451E-17,0.));
#856=DIRECTION('',(-6.25689260947451E-17,1.,0.));
#857=DIRECTION('',(6.25689260947451E-17,-1.,0.));
#858=DIRECTION('',(0.,0.,-1.));
#859=DIRECTION('',(6.25689260947451E-17,-1.,0.));
#860=DIRECTION('',(0.,0.,-1.));
#861=DIRECTION('',(0.,0.,1.));
#862=DIRECTION('',(1.,0.,0.));
#863=DIRECTION('',(0.,0.,1.));
#864=DIRECTION('',(1.,0.,0.));
#865=DIRECTION('',(0.,0.,1.));
#866=DIRECTION('',(1.,0.,0.));
#867=DIRECTION('',(0.,0.,1.));
#868=DIRECTION('',(1.,0.,0.));
#869=DIRECTION('',(0.,0.,1.));
#870=DIRECTION('',(1.,0.,0.));
#871=DIRECTION('',(-1.82602471155453E-16,1.,0.));
#872=DIRECTION('',(0.,1.,0.));
#873=DIRECTION('',(0.,0.,1.));
#874=DIRECTION('',(1.,0.,0.));
#875=DIRECTION('',(0.,0.,1.));
#876=DIRECTION('',(1.,0.,0.));
#877=DIRECTION('',(0.,0.,1.));
#878=DIRECTION('',(1.,0.,0.));
#879=DIRECTION('',(0.,0.,1.));
#880=DIRECTION('',(1.,0.,0.));
#881=DIRECTION('',(0.,0.,1.));
#882=DIRECTION('',(1.,0.,0.));
#883=DIRECTION('',(0.,0.,1.));
#884=DIRECTION('',(1.,0.,0.));
#885=DIRECTION('',(1.,0.,0.));
#886=DIRECTION('',(0.,0.,-1.));
#887=DIRECTION('',(0.,1.,0.));
#888=DIRECTION('',(1.,1.82602471155453E-16,0.));
#889=DIRECTION('',(-1.82602471155453E-16,1.,0.));
#890=DIRECTION('',(-1.82602471155453E-16,1.,0.));
#891=DIRECTION('',(0.,0.,1.));
#892=DIRECTION('',(1.,0.,0.));
#893=DIRECTION('',(0.,0.,1.));
#894=DIRECTION('',(1.,0.,0.));
#895=DIRECTION('',(0.,0.,-1.));
#896=DIRECTION('',(-1.,0.,0.));
#897=DIRECTION('',(0.,0.,1.));
#898=DIRECTION('',(1.,0.,0.));
#899=DIRECTION('',(0.,0.,-1.));
#900=DIRECTION('',(-1.,0.,0.));
#901=DIRECTION('',(0.,0.,1.));
#902=DIRECTION('',(1.,0.,0.));
#903=DIRECTION('',(0.,0.,-1.));
#904=DIRECTION('',(-1.,0.,0.));
#905=DIRECTION('',(0.,0.,1.));
#906=DIRECTION('',(1.,0.,0.));
#907=DIRECTION('',(0.,0.,1.));
#908=DIRECTION('',(1.,0.,0.));
#909=DIRECTION('',(0.,0.,-1.));
#910=DIRECTION('',(-1.,0.,0.));
#911=DIRECTION('',(0.,0.,1.));
#912=DIRECTION('',(1.,0.,0.));
#913=DIRECTION('',(0.,0.,1.));
#914=DIRECTION('',(1.,0.,0.));
#915=DIRECTION('',(0.,0.,1.));
#916=DIRECTION('',(1.,0.,0.));
#917=DIRECTION('',(0.,0.,1.));
#918=DIRECTION('',(1.,0.,0.));
#919=DIRECTION('',(0.,0.,1.));
#920=DIRECTION('',(1.,0.,0.));
#921=DIRECTION('',(0.,0.,-1.));
#922=DIRECTION('',(-1.,0.,0.));
#923=DIRECTION('',(0.,0.,1.));
#924=DIRECTION('',(1.,0.,0.));
#925=DIRECTION('',(0.,0.,1.));
#926=DIRECTION('',(1.,0.,0.));
#927=DIRECTION('',(0.,0.,-1.));
#928=DIRECTION('',(-1.,0.,0.));
#929=DIRECTION('',(0.,0.,1.));
#930=DIRECTION('',(1.,0.,0.));
#931=DIRECTION('',(0.,0.,1.));
#932=DIRECTION('',(1.,0.,0.));
#933=DIRECTION('',(0.,0.,1.));
#934=DIRECTION('',(1.,0.,0.));
#935=DIRECTION('',(0.,0.,1.));
#936=DIRECTION('',(1.,0.,0.));
#937=CARTESIAN_POINT('',(0.,0.,0.));
#938=CARTESIAN_POINT('',(0.0459906435965582,-0.0647045522928238,0.013));
#939=CARTESIAN_POINT('',(0.0459906435965582,-0.0647045522928238,0.013));
#940=CARTESIAN_POINT('',(0.0476906435965582,-0.0647045522928238,0.013));
#941=CARTESIAN_POINT('',(0.0459906435965582,-0.0647045522928238,0.0031));
#942=CARTESIAN_POINT('',(0.0476906435965582,-0.0647045522928238,0.0031));
#943=CARTESIAN_POINT('',(0.0459906435965582,-0.0647045522928238,0.013));
#944=CARTESIAN_POINT('',(0.0459906435965582,-0.0647045522928238,0.013));
#945=CARTESIAN_POINT('',(0.0489906435965582,-0.0647045522928238,0.013));
#946=CARTESIAN_POINT('',(0.0459906435965582,-0.0647045522928238,0.0031));
#947=CARTESIAN_POINT('',(0.0489906435965582,-0.0647045522928238,0.0031));
#948=CARTESIAN_POINT('',(0.0101306435965582,-0.0159545522928238,0.013));
#949=CARTESIAN_POINT('',(0.0101306435965582,-0.0159545522928238,0.0031));
#950=CARTESIAN_POINT('',(0.,0.,0.));
#951=CARTESIAN_POINT('',(-0.0257293564034418,0.0327954477071763,0.013));
#952=CARTESIAN_POINT('',(-0.0257293564034418,0.0327954477071763,0.013));
#953=CARTESIAN_POINT('',(-0.0240293564034418,0.0327954477071763,0.013));
#954=CARTESIAN_POINT('',(-0.0257293564034418,0.0327954477071763,0.0031));
#955=CARTESIAN_POINT('',(-0.0240293564034418,0.0327954477071763,0.0031));
#956=CARTESIAN_POINT('',(-0.0257293564034418,0.0327954477071763,0.013));
#957=CARTESIAN_POINT('',(-0.0257293564034418,0.0327954477071763,0.013));
#958=CARTESIAN_POINT('',(-0.0227293564034418,0.0327954477071763,0.013));
#959=CARTESIAN_POINT('',(-0.0257293564034418,0.0327954477071763,0.0031));
#960=CARTESIAN_POINT('',(-0.0227293564034418,0.0327954477071763,0.0031));
#961=CARTESIAN_POINT('',(0.0101306435965582,-0.0159545522928238,0.013));
#962=CARTESIAN_POINT('',(0.0101306435965582,-0.0159545522928238,0.0031));
#963=CARTESIAN_POINT('',(0.,0.,0.));
#964=CARTESIAN_POINT('',(0.0101306435965582,-0.0619045522928238,0.013));
#965=CARTESIAN_POINT('',(0.0101306435965582,-0.0619045522928238,0.0055));
#966=CARTESIAN_POINT('',(0.00194064359655819,-0.0619045522928238,0.0055));
#967=CARTESIAN_POINT('',(0.0204406435965582,-0.0619045522928238,0.0055));
#968=CARTESIAN_POINT('',(0.0204406435965582,-0.0619045522928238,0.0055));
#969=CARTESIAN_POINT('',(0.0204406435965582,-0.0619045522928238,0.013));
#970=CARTESIAN_POINT('',(0.0101306435965582,-0.0619045522928238,0.013));
#971=CARTESIAN_POINT('',(0.0431906435965582,-0.0619045522928238,0.013));
#972=CARTESIAN_POINT('',(0.0431906435965582,-0.0619045522928238,0.013));
#973=CARTESIAN_POINT('',(0.0431906435965582,-0.0619045522928238,0.003));
#974=CARTESIAN_POINT('',(0.0101306435965582,-0.0619045522928238,0.003));
#975=CARTESIAN_POINT('',(-0.0229293564034418,-0.0619045522928238,0.003));
#976=CARTESIAN_POINT('',(-0.0229293564034418,-0.0619045522928238,0.013));
#977=CARTESIAN_POINT('',(-0.0229293564034418,-0.0619045522928238,0.013));
#978=CARTESIAN_POINT('',(0.0101306435965582,-0.0619045522928238,0.013));
#979=CARTESIAN_POINT('',(0.00194064359655819,-0.0619045522928238,0.013));
#980=CARTESIAN_POINT('',(0.00194064359655819,-0.0619045522928238,0.0055));
#981=CARTESIAN_POINT('',(0.0101306435965582,0.0394954477071763,0.013));
#982=CARTESIAN_POINT('',(0.0101306435965582,0.0394954477071763,0.));
#983=CARTESIAN_POINT('',(-0.0274293564034418,0.0394954477071763,0.));
#984=CARTESIAN_POINT('',(0.0476906435965582,0.0394954477071763,0.));
#985=CARTESIAN_POINT('',(-0.0274293564034418,0.0394954477071763,0.013));
#986=CARTESIAN_POINT('',(-0.0274293564034418,0.0394954477071763,0.013));
#987=CARTESIAN_POINT('',(0.0101306435965582,0.0394954477071763,0.013));
#988=CARTESIAN_POINT('',(0.0476906435965582,0.0394954477071763,0.013));
#989=CARTESIAN_POINT('',(0.0476906435965582,0.0394954477071763,0.013));
#990=CARTESIAN_POINT('',(-0.0324293564034418,-0.0159545522928238,0.013));
#991=CARTESIAN_POINT('',(-0.0324293564034418,-0.0159545522928238,0.));
#992=CARTESIAN_POINT('',(-0.0324293564034418,0.0344954477071763,0.));
#993=CARTESIAN_POINT('',(-0.0324293564034418,-0.0664045522928238,0.));
#994=CARTESIAN_POINT('',(-0.0324293564034418,-0.0664045522928238,0.013));
#995=CARTESIAN_POINT('',(-0.0324293564034418,-0.0664045522928238,0.013));
#996=CARTESIAN_POINT('',(-0.0324293564034418,-0.0159545522928238,0.013));
#997=CARTESIAN_POINT('',(-0.0324293564034418,0.0344954477071763,0.013));
#998=CARTESIAN_POINT('',(-0.0324293564034418,0.0344954477071763,0.));
#999=CARTESIAN_POINT('',(0.0101306435965582,-0.0714045522928238,0.013));
#1000=CARTESIAN_POINT('',(0.0101306435965582,-0.0714045522928238,0.));
#1001=CARTESIAN_POINT('',(-0.0274293564034418,-0.0714045522928238,0.));
#1002=CARTESIAN_POINT('',(0.0476906435965582,-0.0714045522928238,0.));
#1003=CARTESIAN_POINT('',(0.0476906435965582,-0.0714045522928238,0.013));
#1004=CARTESIAN_POINT('',(0.0476906435965582,-0.0714045522928238,0.013));
#1005=CARTESIAN_POINT('',(0.0101306435965582,-0.0714045522928238,0.013));
#1006=CARTESIAN_POINT('',(0.0204406435965582,-0.0714045522928238,0.013));
#1007=CARTESIAN_POINT('',(0.0204406435965582,-0.0714045522928238,0.0055));
#1008=CARTESIAN_POINT('',(0.0204406435965582,-0.0714045522928238,0.0055));
#1009=CARTESIAN_POINT('',(0.0101306435965582,-0.0714045522928238,0.0055));
#1010=CARTESIAN_POINT('',(0.00194064359655819,-0.0714045522928238,0.0055));
#1011=CARTESIAN_POINT('',(0.00194064359655819,-0.0714045522928238,0.0055));
#1012=CARTESIAN_POINT('',(0.00194064359655819,-0.0714045522928238,0.013));
#1013=CARTESIAN_POINT('',(0.0101306435965582,-0.0714045522928238,0.013));
#1014=CARTESIAN_POINT('',(-0.0274293564034418,-0.0714045522928238,0.013));
#1015=CARTESIAN_POINT('',(-0.0274293564034418,-0.0714045522928238,0.013));
#1016=CARTESIAN_POINT('',(-0.0229293564034418,-0.0159545522928238,0.013));
#1017=CARTESIAN_POINT('',(-0.0229293564034418,-0.0159545522928238,0.003));
#1018=CARTESIAN_POINT('',(-0.0229293564034418,0.0299954477071762,0.003));
#1019=CARTESIAN_POINT('',(-0.0229293564034418,0.0299954477071762,0.013));
#1020=CARTESIAN_POINT('',(-0.0229293564034418,0.0299954477071762,0.013));
#1021=CARTESIAN_POINT('',(-0.0229293564034418,-0.0159545522928238,0.013));
#1022=CARTESIAN_POINT('',(0.0101306435965582,0.0299954477071762,0.013));
#1023=CARTESIAN_POINT('',(0.0101306435965582,0.0299954477071762,0.003));
#1024=CARTESIAN_POINT('',(0.0431906435965582,0.0299954477071762,0.003));
#1025=CARTESIAN_POINT('',(0.0431906435965582,0.0299954477071762,0.013));
#1026=CARTESIAN_POINT('',(0.0431906435965582,0.0299954477071762,0.013));
#1027=CARTESIAN_POINT('',(0.0101306435965582,0.0299954477071762,0.013));
#1028=CARTESIAN_POINT('',(0.0431906435965582,-0.0159545522928238,0.013));
#1029=CARTESIAN_POINT('',(0.0431906435965582,-0.0159545522928238,0.003));
#1030=CARTESIAN_POINT('',(0.0431906435965582,-0.0159545522928238,0.013));
#1031=CARTESIAN_POINT('',(-0.0257293564034418,-0.0647045522928238,0.013));
#1032=CARTESIAN_POINT('',(-0.0257293564034418,-0.0647045522928238,0.013));
#1033=CARTESIAN_POINT('',(-0.0227293564034418,-0.0647045522928238,0.013));
#1034=CARTESIAN_POINT('',(-0.0257293564034418,-0.0647045522928238,0.));
#1035=CARTESIAN_POINT('',(-0.0227293564034418,-0.0647045522928238,0.));
#1036=CARTESIAN_POINT('',(0.0459906435965582,-0.0647045522928238,0.013));
#1037=CARTESIAN_POINT('',(0.0459906435965582,-0.0647045522928238,0.013));
#1038=CARTESIAN_POINT('',(0.0489906435965582,-0.0647045522928238,0.013));
#1039=CARTESIAN_POINT('',(0.0459906435965582,-0.0647045522928238,0.));
#1040=CARTESIAN_POINT('',(0.0489906435965582,-0.0647045522928238,0.));
#1041=CARTESIAN_POINT('',(0.0459906435965582,0.0327954477071763,0.013));
#1042=CARTESIAN_POINT('',(0.0459906435965582,0.0327954477071763,0.013));
#1043=CARTESIAN_POINT('',(0.0489906435965582,0.0327954477071763,0.013));
#1044=CARTESIAN_POINT('',(0.0459906435965582,0.0327954477071763,0.));
#1045=CARTESIAN_POINT('',(0.0489906435965582,0.0327954477071763,0.));
#1046=CARTESIAN_POINT('',(-0.0257293564034418,0.0327954477071763,0.013));
#1047=CARTESIAN_POINT('',(-0.0257293564034418,0.0327954477071763,0.013));
#1048=CARTESIAN_POINT('',(-0.0227293564034418,0.0327954477071763,0.013));
#1049=CARTESIAN_POINT('',(-0.0257293564034418,0.0327954477071763,0.));
#1050=CARTESIAN_POINT('',(-0.0227293564034418,0.0327954477071763,0.));
#1051=CARTESIAN_POINT('',(0.0526906435965582,-0.0159545522928238,0.013));
#1052=CARTESIAN_POINT('',(0.0526906435965582,-0.0159545522928238,0.013));
#1053=CARTESIAN_POINT('',(0.0526906435965582,0.0344954477071763,0.013));
#1054=CARTESIAN_POINT('',(0.0526906435965582,-0.0664045522928238,0.013));
#1055=CARTESIAN_POINT('',(0.0526906435965582,-0.0664045522928238,0.));
#1056=CARTESIAN_POINT('',(0.0526906435965582,-0.0664045522928238,0.));
#1057=CARTESIAN_POINT('',(0.0526906435965582,-0.0159545522928238,0.));
#1058=CARTESIAN_POINT('',(0.0526906435965582,0.0344954477071763,0.));
#1059=CARTESIAN_POINT('',(0.0526906435965582,0.0344954477071763,0.013));
#1060=CARTESIAN_POINT('',(0.0101306435965582,-0.0159545522928238,0.013));
#1061=CARTESIAN_POINT('',(0.0476906435965582,-0.0664045522928238,0.013));
#1062=CARTESIAN_POINT('',(0.0476906435965582,0.0344954477071763,0.013));
#1063=CARTESIAN_POINT('',(-0.0274293564034418,0.0344954477071763,0.013));
#1064=CARTESIAN_POINT('',(-0.0274293564034418,-0.0664045522928238,0.013));
#1065=CARTESIAN_POINT('',(0.00194064359655819,-0.0666545522928238,0.013));
#1066=CARTESIAN_POINT('',(0.0204406435965582,-0.0666545522928238,0.013));
#1067=CARTESIAN_POINT('',(0.0101306435965582,-0.0159545522928238,0.));
#1068=CARTESIAN_POINT('',(0.0476906435965582,-0.0664045522928238,0.));
#1069=CARTESIAN_POINT('',(-0.0274293564034418,-0.0664045522928238,0.));
#1070=CARTESIAN_POINT('',(-0.0274293564034418,0.0344954477071763,0.));
#1071=CARTESIAN_POINT('',(0.0476906435965582,0.0344954477071763,0.));
#1072=CARTESIAN_POINT('',(0.0101306435965582,-0.0159545522928238,0.003));
#1073=CARTESIAN_POINT('',(0.0204406435965582,-0.0666545522928238,0.0055));
#1074=CARTESIAN_POINT('',(0.0204406435965582,-0.0666545522928238,0.0055));
#1075=CARTESIAN_POINT('',(0.00194064359655819,-0.0666545522928238,0.0055));
#1076=CARTESIAN_POINT('',(0.00194064359655819,-0.0666545522928238,0.0055));
#1077=CARTESIAN_POINT('',(0.0101306435965582,-0.0159545522928238,0.0055));
#1078=CARTESIAN_POINT('',(0.0476906435965582,-0.0664045522928238,0.013));
#1079=CARTESIAN_POINT('',(-0.0274293564034418,-0.0664045522928238,0.013));
#1080=CARTESIAN_POINT('',(-0.0274293564034418,0.0344954477071763,0.013));
#1081=CARTESIAN_POINT('',(0.0476906435965582,0.0344954477071763,0.013));
#1082=CARTESIAN_POINT('',(0.,0.,0.));
#1083=CARTESIAN_POINT('',(-0.0257293564034418,-0.0647045522928238,0.013));
#1084=CARTESIAN_POINT('',(-0.0257293564034418,-0.0647045522928238,0.013));
#1085=CARTESIAN_POINT('',(-0.0240293564034418,-0.0647045522928238,0.013));
#1086=CARTESIAN_POINT('',(-0.0257293564034418,-0.0647045522928238,0.0031));
#1087=CARTESIAN_POINT('',(-0.0240293564034418,-0.0647045522928238,0.0031));
#1088=CARTESIAN_POINT('',(-0.0257293564034418,-0.0647045522928238,0.013));
#1089=CARTESIAN_POINT('',(-0.0257293564034418,-0.0647045522928238,0.013));
#1090=CARTESIAN_POINT('',(-0.0227293564034418,-0.0647045522928238,0.013));
#1091=CARTESIAN_POINT('',(-0.0257293564034418,-0.0647045522928238,0.0031));
#1092=CARTESIAN_POINT('',(-0.0227293564034418,-0.0647045522928238,0.0031));
#1093=CARTESIAN_POINT('',(0.0101306435965582,-0.0159545522928238,0.013));
#1094=CARTESIAN_POINT('',(0.0101306435965582,-0.0159545522928238,0.0031));
#1095=CARTESIAN_POINT('',(0.,0.,0.));
#1096=CARTESIAN_POINT('',(0.0459906435965582,0.0327954477071763,0.013));
#1097=CARTESIAN_POINT('',(0.0459906435965582,0.0327954477071763,0.013));
#1098=CARTESIAN_POINT('',(0.0476906435965582,0.0327954477071763,0.013));
#1099=CARTESIAN_POINT('',(0.0459906435965582,0.0327954477071763,0.0031));
#1100=CARTESIAN_POINT('',(0.0476906435965582,0.0327954477071763,0.0031));
#1101=CARTESIAN_POINT('',(0.0459906435965582,0.0327954477071763,0.013));
#1102=CARTESIAN_POINT('',(0.0459906435965582,0.0327954477071763,0.013));
#1103=CARTESIAN_POINT('',(0.0489906435965582,0.0327954477071763,0.013));
#1104=CARTESIAN_POINT('',(0.0459906435965582,0.0327954477071763,0.0031));
#1105=CARTESIAN_POINT('',(0.0489906435965582,0.0327954477071763,0.0031));
#1106=CARTESIAN_POINT('',(0.0101306435965582,-0.0159545522928238,0.013));
#1107=CARTESIAN_POINT('',(0.0101306435965582,-0.0159545522928238,0.0031));
#1108=MECHANICAL_DESIGN_GEOMETRIC_PRESENTATION_REPRESENTATION('',(#617),
#1113);
#1109=MECHANICAL_DESIGN_GEOMETRIC_PRESENTATION_REPRESENTATION('',(#618),
#1114);
#1110=MECHANICAL_DESIGN_GEOMETRIC_PRESENTATION_REPRESENTATION('',(#619),
#1115);
#1111=MECHANICAL_DESIGN_GEOMETRIC_PRESENTATION_REPRESENTATION('',(#620),
#1116);
#1112=MECHANICAL_DESIGN_GEOMETRIC_PRESENTATION_REPRESENTATION('',(#621),
#1117);
#1113=(
GEOMETRIC_REPRESENTATION_CONTEXT(3)
GLOBAL_UNCERTAINTY_ASSIGNED_CONTEXT((#1118))
GLOBAL_UNIT_ASSIGNED_CONTEXT((#1133,#1128,#1123))
REPRESENTATION_CONTEXT('Part 4','TOP_LEVEL_ASSEMBLY_PART')
);
#1114=(
GEOMETRIC_REPRESENTATION_CONTEXT(3)
GLOBAL_UNCERTAINTY_ASSIGNED_CONTEXT((#1119))
GLOBAL_UNIT_ASSIGNED_CONTEXT((#1134,#1129,#1124))
REPRESENTATION_CONTEXT('Part 2','TOP_LEVEL_ASSEMBLY_PART')
);
#1115=(
GEOMETRIC_REPRESENTATION_CONTEXT(3)
GLOBAL_UNCERTAINTY_ASSIGNED_CONTEXT((#1120))
GLOBAL_UNIT_ASSIGNED_CONTEXT((#1135,#1130,#1125))
REPRESENTATION_CONTEXT('Part 5','TOP_LEVEL_ASSEMBLY_PART')
);
#1116=(
GEOMETRIC_REPRESENTATION_CONTEXT(3)
GLOBAL_UNCERTAINTY_ASSIGNED_CONTEXT((#1121))
GLOBAL_UNIT_ASSIGNED_CONTEXT((#1136,#1131,#1126))
REPRESENTATION_CONTEXT('Part 1','TOP_LEVEL_ASSEMBLY_PART')
);
#1117=(
GEOMETRIC_REPRESENTATION_CONTEXT(3)
GLOBAL_UNCERTAINTY_ASSIGNED_CONTEXT((#1122))
GLOBAL_UNIT_ASSIGNED_CONTEXT((#1137,#1132,#1127))
REPRESENTATION_CONTEXT('Part 3','TOP_LEVEL_ASSEMBLY_PART')
);
#1118=UNCERTAINTY_MEASURE_WITH_UNIT(LENGTH_MEASURE(1.E-8),#1133,
'DISTANCE_ACCURACY_VALUE','Maximum Tolerance applied to model');
#1119=UNCERTAINTY_MEASURE_WITH_UNIT(LENGTH_MEASURE(1.E-8),#1134,
'DISTANCE_ACCURACY_VALUE','Maximum Tolerance applied to model');
#1120=UNCERTAINTY_MEASURE_WITH_UNIT(LENGTH_MEASURE(1.E-8),#1135,
'DISTANCE_ACCURACY_VALUE','Maximum Tolerance applied to model');
#1121=UNCERTAINTY_MEASURE_WITH_UNIT(LENGTH_MEASURE(1.E-8),#1136,
'DISTANCE_ACCURACY_VALUE','Maximum Tolerance applied to model');
#1122=UNCERTAINTY_MEASURE_WITH_UNIT(LENGTH_MEASURE(1.E-8),#1137,
'DISTANCE_ACCURACY_VALUE','Maximum Tolerance applied to model');
#1123=(
NAMED_UNIT(*)
SI_UNIT($,.STERADIAN.)
SOLID_ANGLE_UNIT()
);
#1124=(
NAMED_UNIT(*)
SI_UNIT($,.STERADIAN.)
SOLID_ANGLE_UNIT()
);
#1125=(
NAMED_UNIT(*)
SI_UNIT($,.STERADIAN.)
SOLID_ANGLE_UNIT()
);
#1126=(
NAMED_UNIT(*)
SI_UNIT($,.STERADIAN.)
SOLID_ANGLE_UNIT()
);
#1127=(
NAMED_UNIT(*)
SI_UNIT($,.STERADIAN.)
SOLID_ANGLE_UNIT()
);
#1128=(
NAMED_UNIT(*)
PLANE_ANGLE_UNIT()
SI_UNIT($,.RADIAN.)
);
#1129=(
NAMED_UNIT(*)
PLANE_ANGLE_UNIT()
SI_UNIT($,.RADIAN.)
);
#1130=(
NAMED_UNIT(*)
PLANE_ANGLE_UNIT()
SI_UNIT($,.RADIAN.)
);
#1131=(
NAMED_UNIT(*)
PLANE_ANGLE_UNIT()
SI_UNIT($,.RADIAN.)
);
#1132=(
NAMED_UNIT(*)
PLANE_ANGLE_UNIT()
SI_UNIT($,.RADIAN.)
);
#1133=(
LENGTH_UNIT()
NAMED_UNIT(*)
SI_UNIT($,.METRE.)
);
#1134=(
LENGTH_UNIT()
NAMED_UNIT(*)
SI_UNIT($,.METRE.)
);
#1135=(
LENGTH_UNIT()
NAMED_UNIT(*)
SI_UNIT($,.METRE.)
);
#1136=(
LENGTH_UNIT()
NAMED_UNIT(*)
SI_UNIT($,.METRE.)
);
#1137=(
LENGTH_UNIT()
NAMED_UNIT(*)
SI_UNIT($,.METRE.)
);
#1138=PRODUCT_DEFINITION_SHAPE('','',#1143);
#1139=PRODUCT_DEFINITION_SHAPE('','',#1144);
#1140=PRODUCT_DEFINITION_SHAPE('','',#1145);
#1141=PRODUCT_DEFINITION_SHAPE('','',#1146);
#1142=PRODUCT_DEFINITION_SHAPE('','',#1147);
#1143=PRODUCT_DEFINITION('','',#1153,#1148);
#1144=PRODUCT_DEFINITION('','',#1154,#1149);
#1145=PRODUCT_DEFINITION('','',#1155,#1150);
#1146=PRODUCT_DEFINITION('','',#1156,#1151);
#1147=PRODUCT_DEFINITION('','',#1157,#1152);
#1148=PRODUCT_DEFINITION_CONTEXT('',#1183,'design');
#1149=PRODUCT_DEFINITION_CONTEXT('',#1184,'design');
#1150=PRODUCT_DEFINITION_CONTEXT('',#1185,'design');
#1151=PRODUCT_DEFINITION_CONTEXT('',#1186,'design');
#1152=PRODUCT_DEFINITION_CONTEXT('',#1187,'design');
#1153=PRODUCT_DEFINITION_FORMATION_WITH_SPECIFIED_SOURCE('','',#1163,
 .NOT_KNOWN.);
#1154=PRODUCT_DEFINITION_FORMATION_WITH_SPECIFIED_SOURCE('','',#1164,
 .NOT_KNOWN.);
#1155=PRODUCT_DEFINITION_FORMATION_WITH_SPECIFIED_SOURCE('','',#1165,
 .NOT_KNOWN.);
#1156=PRODUCT_DEFINITION_FORMATION_WITH_SPECIFIED_SOURCE('','',#1166,
 .NOT_KNOWN.);
#1157=PRODUCT_DEFINITION_FORMATION_WITH_SPECIFIED_SOURCE('','',#1167,
 .NOT_KNOWN.);
#1158=PRODUCT_RELATED_PRODUCT_CATEGORY('','',(#1163));
#1159=PRODUCT_RELATED_PRODUCT_CATEGORY('','',(#1164));
#1160=PRODUCT_RELATED_PRODUCT_CATEGORY('','',(#1165));
#1161=PRODUCT_RELATED_PRODUCT_CATEGORY('','',(#1166));
#1162=PRODUCT_RELATED_PRODUCT_CATEGORY('','',(#1167));
#1163=PRODUCT('Part 4','Part 4','Part 4',(#1173));
#1164=PRODUCT('Part 2','Part 2','Part 2',(#1174));
#1165=PRODUCT('Part 5','Part 5','Part 5',(#1175));
#1166=PRODUCT('Part 1','Part 1','Part 1',(#1176));
#1167=PRODUCT('Part 3','Part 3','Part 3',(#1177));
#1168=PRODUCT_CATEGORY('','');
#1169=PRODUCT_CATEGORY('','');
#1170=PRODUCT_CATEGORY('','');
#1171=PRODUCT_CATEGORY('','');
#1172=PRODUCT_CATEGORY('','');
#1173=PRODUCT_CONTEXT('',#1183,'mechanical');
#1174=PRODUCT_CONTEXT('',#1184,'mechanical');
#1175=PRODUCT_CONTEXT('',#1185,'mechanical');
#1176=PRODUCT_CONTEXT('',#1186,'mechanical');
#1177=PRODUCT_CONTEXT('',#1187,'mechanical');
#1178=APPLICATION_PROTOCOL_DEFINITION('international standard',
'ap242_managed_model_based_3d_engineering',2020,#1183);
#1179=APPLICATION_PROTOCOL_DEFINITION('international standard',
'ap242_managed_model_based_3d_engineering',2020,#1184);
#1180=APPLICATION_PROTOCOL_DEFINITION('international standard',
'ap242_managed_model_based_3d_engineering',2020,#1185);
#1181=APPLICATION_PROTOCOL_DEFINITION('international standard',
'ap242_managed_model_based_3d_engineering',2020,#1186);
#1182=APPLICATION_PROTOCOL_DEFINITION('international standard',
'ap242_managed_model_based_3d_engineering',2020,#1187);
#1183=APPLICATION_CONTEXT('managed model based 3d engineering');
#1184=APPLICATION_CONTEXT('managed model based 3d engineering');
#1185=APPLICATION_CONTEXT('managed model based 3d engineering');
#1186=APPLICATION_CONTEXT('managed model based 3d engineering');
#1187=APPLICATION_CONTEXT('managed model based 3d engineering');
ENDSEC;
END-ISO-10303-21;
