M48
; DRILL file KiCad 10.0.5 date 2026-08-28T11:11:51
; FORMAT={-:-/ absolute / metric / decimal}
; #@! TF.CreationDate,2026-08-28T11:11:51+05:30
; #@! TF.GenerationSoftware,Kicad,Pcbnew,10.0.5
; #@! TF.FileFunction,Plated,1,2,PTH
FMAT,2
METRIC
; #@! TA.AperFunction,Plated,PTH,ViaDrill
T1C0.300
; #@! TA.AperFunction,Plated,PTH,ComponentDrill
T2C0.889
; #@! TA.AperFunction,Plated,PTH,ComponentDrill
T3C1.500
%
G90
G05
T1
X66.43Y-53.38
X75.2Y-115.45
X81.77Y-64.12
X92.804Y-32.659
X103.56Y-53.06
T2
X76.82Y-30.028
X76.82Y-32.569
X76.82Y-35.108
X76.82Y-37.648
X76.82Y-40.188
X76.82Y-42.728
X76.82Y-45.268
X92.06Y-30.028
X92.06Y-32.569
X92.06Y-35.108
X92.06Y-37.648
X92.06Y-40.188
X92.06Y-42.728
X92.06Y-45.268
T3
X62.52Y-102.69
X62.547Y-64.135
X62.55Y-83.37
X68.87Y-100.15
X68.897Y-61.595
X68.9Y-80.83
X81.76Y-102.656
X81.77Y-64.12
X81.82Y-83.41
X88.11Y-100.116
X88.12Y-61.58
X88.17Y-80.87
X101.0Y-64.13
X101.08Y-83.39
X101.08Y-102.64
X107.35Y-61.59
X107.43Y-80.85
X107.43Y-100.1
M30
