M48
; DRILL file KiCad 10.0.5 date 2026-08-28T11:11:51
; FORMAT={-:-/ absolute / metric / decimal}
; #@! TF.CreationDate,2026-08-28T11:11:51+05:30
; #@! TF.GenerationSoftware,Kicad,Pcbnew,10.0.5
; #@! TF.FileFunction,NonPlated,1,2,NPTH
FMAT,2
METRIC
; #@! TA.AperFunction,NonPlated,NPTH,ComponentDrill
T1C1.700
; #@! TA.AperFunction,NonPlated,NPTH,ComponentDrill
T2C4.000
%
G90
G05
T1
X61.25Y-105.23
X61.277Y-66.675
X61.28Y-85.91
X71.41Y-105.23
X71.438Y-66.675
X71.44Y-85.91
X80.49Y-105.196
X80.5Y-66.66
X80.55Y-85.95
X90.65Y-105.196
X90.66Y-66.66
X90.71Y-85.95
X99.73Y-66.67
X99.81Y-85.93
X99.81Y-105.18
X109.89Y-66.67
X109.97Y-85.93
X109.97Y-105.18
T2
X66.33Y-105.23
X66.358Y-66.675
X66.36Y-85.91
X85.57Y-105.196
X85.58Y-66.66
X85.63Y-85.95
X104.81Y-66.67
X104.89Y-85.93
X104.89Y-105.18
M30
