%TF.GenerationSoftware,KiCad,Pcbnew,10.0.5*%
%TF.CreationDate,2026-08-28T11:09:44+05:30*%
%TF.ProjectId,the_hackpad_v1,7468655f-6861-4636-9b70-61645f76312e,rev?*%
%TF.SameCoordinates,Original*%
%TF.FileFunction,Copper,L1,Top*%
%TF.FilePolarity,Positive*%
%FSLAX46Y46*%
G04 Gerber Fmt 4.6, Leading zero omitted, Abs format (unit mm)*
G04 Created by KiCad (PCBNEW 10.0.5) date 2026-08-28 11:09:44*
%MOMM*%
%LPD*%
G01*
G04 APERTURE LIST*
G04 Aperture macros list*
%AMRoundRect*
0 Rectangle with rounded corners*
0 $1 Rounding radius*
0 $2 $3 $4 $5 $6 $7 $8 $9 X,Y pos of 4 corners*
0 Add a 4 corners polygon primitive as box body*
4,1,4,$2,$3,$4,$5,$6,$7,$8,$9,$2,$3,0*
0 Add four circle primitives for the rounded corners*
1,1,$1+$1,$2,$3*
1,1,$1+$1,$4,$5*
1,1,$1+$1,$6,$7*
1,1,$1+$1,$8,$9*
0 Add four rect primitives between the rounded corners*
20,1,$1+$1,$2,$3,$4,$5,0*
20,1,$1+$1,$4,$5,$6,$7,0*
20,1,$1+$1,$6,$7,$8,$9,0*
20,1,$1+$1,$8,$9,$2,$3,0*%
G04 Aperture macros list end*
%TA.AperFunction,SMDPad,CuDef*%
%ADD10RoundRect,0.152400X1.063600X0.609600X-1.063600X0.609600X-1.063600X-0.609600X1.063600X-0.609600X0*%
%TD*%
%TA.AperFunction,ComponentPad*%
%ADD11C,1.524000*%
%TD*%
%TA.AperFunction,SMDPad,CuDef*%
%ADD12RoundRect,0.152400X-1.063600X-0.609600X1.063600X-0.609600X1.063600X0.609600X-1.063600X0.609600X0*%
%TD*%
%TA.AperFunction,ComponentPad*%
%ADD13C,2.200000*%
%TD*%
%TA.AperFunction,SMDPad,CuDef*%
%ADD14R,1.600000X0.850000*%
%TD*%
%TA.AperFunction,ViaPad*%
%ADD15C,0.600000*%
%TD*%
%TA.AperFunction,Conductor*%
%ADD16C,0.200000*%
%TD*%
G04 APERTURE END LIST*
D10*
%TO.P,U1,1,D0_1*%
%TO.N,Net-(D1-DIN)*%
X75985000Y-30028500D03*
D11*
X76820000Y-30028500D03*
D10*
%TO.P,U1,2,D1_2*%
%TO.N,Net-(U1-D1)*%
X75985000Y-32568500D03*
D11*
X76820000Y-32568500D03*
D10*
%TO.P,U1,3,D2_3*%
%TO.N,Net-(U1-D2)*%
X75985000Y-35108500D03*
D11*
X76820000Y-35108500D03*
D10*
%TO.P,U1,4,D3_4*%
%TO.N,Net-(U1-D3)*%
X75985000Y-37648500D03*
D11*
X76820000Y-37648500D03*
D10*
%TO.P,U1,5,D4_5*%
%TO.N,Net-(U1-D4)*%
X75985000Y-40188500D03*
D11*
X76820000Y-40188500D03*
D10*
%TO.P,U1,6,D5_6*%
%TO.N,Net-(U1-D5)*%
X75985000Y-42728500D03*
D11*
X76820000Y-42728500D03*
D10*
%TO.P,U1,7,D6_7*%
%TO.N,Net-(U1-D6)*%
X75985000Y-45268500D03*
D11*
X76820000Y-45268500D03*
%TO.P,U1,8,D7_8*%
%TO.N,Net-(U1-D7)*%
X92060000Y-45268500D03*
D12*
X92895000Y-45268500D03*
D11*
%TO.P,U1,9,D8_9*%
%TO.N,Net-(U1-D8)*%
X92060000Y-42728500D03*
D12*
X92895000Y-42728500D03*
D11*
%TO.P,U1,10,D9_10*%
%TO.N,unconnected-(U1-D9-Pad10)*%
X92060000Y-40188500D03*
D12*
X92895000Y-40188500D03*
D11*
%TO.P,U1,11,D10_11*%
%TO.N,Net-(U1-D10)*%
X92060000Y-37648500D03*
D12*
X92895000Y-37648500D03*
D11*
%TO.P,U1,12,3V3_OUT_12*%
%TO.N,unconnected-(U1-3V3_OUT-Pad12)*%
X92060000Y-35108500D03*
D12*
X92895000Y-35108500D03*
D11*
%TO.P,U1,13,GND_13*%
%TO.N,GND*%
X92060000Y-32568500D03*
D12*
X92895000Y-32568500D03*
D11*
%TO.P,U1,14,VBUS_14*%
%TO.N,+5V*%
X92060000Y-30028500D03*
D12*
X92895000Y-30028500D03*
%TD*%
D13*
%TO.P,SW7,1,1_1*%
%TO.N,GND*%
X107350000Y-61590000D03*
%TO.P,SW7,2,2_2*%
%TO.N,Net-(U1-D8)*%
X101000000Y-64130000D03*
%TD*%
%TO.P,SW4,1,1_1*%
%TO.N,GND*%
X88120000Y-61580000D03*
%TO.P,SW4,2,2_2*%
%TO.N,Net-(U1-D5)*%
X81770000Y-64120000D03*
%TD*%
D14*
%TO.P,D2,1,DOUT_1*%
%TO.N,unconnected-(D2-DOUT-Pad1)*%
X66430000Y-51630000D03*
%TO.P,D2,2,VSS_2*%
%TO.N,GND*%
X66430000Y-53380000D03*
%TO.P,D2,3,DIN_3*%
%TO.N,Net-(D1-DOUT)*%
X69930000Y-53380000D03*
%TO.P,D2,4,VDD_4*%
%TO.N,+5V*%
X69930000Y-51630000D03*
%TD*%
D13*
%TO.P,SW5,1,1_1*%
%TO.N,GND*%
X88170000Y-80870000D03*
%TO.P,SW5,2,2_2*%
%TO.N,Net-(U1-D4)*%
X81820000Y-83410000D03*
%TD*%
%TO.P,SW6,1,1_1*%
%TO.N,GND*%
X107430000Y-100100000D03*
%TO.P,SW6,2,2_2*%
%TO.N,Net-(U1-D6)*%
X101080000Y-102640000D03*
%TD*%
%TO.P,SW8,1,1_1*%
%TO.N,GND*%
X68900000Y-80830000D03*
%TO.P,SW8,2,2_2*%
%TO.N,Net-(U1-D7)*%
X62550000Y-83370000D03*
%TD*%
%TO.P,SW1,1,1_1*%
%TO.N,GND*%
X68897500Y-61595000D03*
%TO.P,SW1,2,2_2*%
%TO.N,Net-(U1-D1)*%
X62547500Y-64135000D03*
%TD*%
%TO.P,SW9,1,1_1*%
%TO.N,GND*%
X107430000Y-80850000D03*
%TO.P,SW9,2,2_2*%
%TO.N,Net-(U1-D10)*%
X101080000Y-83390000D03*
%TD*%
%TO.P,SW2,1,1_1*%
%TO.N,GND*%
X68870000Y-100150000D03*
%TO.P,SW2,2,2_2*%
%TO.N,Net-(U1-D2)*%
X62520000Y-102690000D03*
%TD*%
%TO.P,SW3,1,1_1*%
%TO.N,GND*%
X88110000Y-100116000D03*
%TO.P,SW3,2,2_2*%
%TO.N,Net-(U1-D3)*%
X81760000Y-102656000D03*
%TD*%
D14*
%TO.P,D1,1,DOUT_1*%
%TO.N,Net-(D1-DOUT)*%
X100060000Y-51310000D03*
%TO.P,D1,2,VSS_2*%
%TO.N,GND*%
X100060000Y-53060000D03*
%TO.P,D1,3,DIN_3*%
%TO.N,Net-(D1-DIN)*%
X103560000Y-53060000D03*
%TO.P,D1,4,VDD_4*%
%TO.N,+5V*%
X103560000Y-51310000D03*
%TD*%
D15*
%TO.N,Net-(D1-DIN)*%
X103560000Y-53060000D03*
%TO.N,Net-(U1-D5)*%
X81770000Y-64120000D03*
%TO.N,Net-(U1-D6)*%
X75200000Y-115450000D03*
%TO.N,GND*%
X92804183Y-32659317D03*
X66430000Y-53380000D03*
%TD*%
%TO.N,*%
D16*
X68040000Y-82600000D02*
X68010000Y-82570000D01*
X70960000Y-64890000D02*
X70960000Y-65395902D01*
X68010000Y-82570000D02*
X68010000Y-82360000D01*
%TO.N,Net-(D1-DIN)*%
X78361500Y-31570000D02*
X78430000Y-31570000D01*
X76820000Y-30028500D02*
X78361500Y-31570000D01*
%TO.N,Net-(U1-D1)*%
X76811500Y-32560000D02*
X58910000Y-32560000D01*
X58910000Y-60497500D02*
X62547500Y-64135000D01*
X58910000Y-32560000D02*
X58910000Y-60497500D01*
X76820000Y-32568500D02*
X76811500Y-32560000D01*
%TO.N,Net-(U1-D2)*%
X73670000Y-53120000D02*
X75790000Y-55240000D01*
X74051500Y-35108500D02*
X73670000Y-35490000D01*
X75790000Y-96560000D02*
X75890000Y-96660000D01*
X75890000Y-96660000D02*
X62200000Y-96660000D01*
X73670000Y-35490000D02*
X73670000Y-53120000D01*
X75790000Y-55240000D02*
X75790000Y-96560000D01*
X62520000Y-96980000D02*
X62520000Y-102690000D01*
X62200000Y-96660000D02*
X62520000Y-96980000D01*
X76820000Y-35108500D02*
X74051500Y-35108500D01*
%TO.N,Net-(U1-D4)*%
X78038500Y-40188500D02*
X78570000Y-40720000D01*
X76740000Y-83410000D02*
X81820000Y-83410000D01*
X76740000Y-54430000D02*
X76740000Y-83410000D01*
X78570000Y-52600000D02*
X76740000Y-54430000D01*
X78570000Y-40720000D02*
X78570000Y-52600000D01*
X76820000Y-40188500D02*
X78038500Y-40188500D01*
%TO.N,Net-(U1-D5)*%
X76820000Y-42728500D02*
X76207786Y-42728500D01*
X74469000Y-39387286D02*
X74729786Y-39126500D01*
X76207786Y-42728500D02*
X74469000Y-40989714D01*
X81770000Y-43354315D02*
X81770000Y-64120000D01*
X77542185Y-39126500D02*
X81770000Y-43354315D01*
X74729786Y-39126500D02*
X77542185Y-39126500D01*
X74469000Y-40989714D02*
X74469000Y-39387286D01*
%TO.N,Net-(U1-D8)*%
X90998000Y-43790500D02*
X90998000Y-52502315D01*
X101000000Y-62504315D02*
X101000000Y-64130000D01*
X92060000Y-42728500D02*
X90998000Y-43790500D01*
X90998000Y-52502315D02*
X101000000Y-62504315D01*
%TO.N,Net-(U1-D10)*%
X95100000Y-57170000D02*
X95100000Y-82600000D01*
X90300000Y-56480000D02*
X90990000Y-57170000D01*
X92895000Y-37648500D02*
X90551500Y-37648500D01*
X95100000Y-82600000D02*
X95890000Y-83390000D01*
X90300000Y-37900000D02*
X90300000Y-56480000D01*
X90551500Y-37648500D02*
X90300000Y-37900000D01*
X90990000Y-57170000D02*
X95100000Y-57170000D01*
X95890000Y-83390000D02*
X101080000Y-83390000D01*
%TO.N,GND*%
X75330000Y-80830000D02*
X75390000Y-80770000D01*
X94700000Y-80970000D02*
X94700000Y-100364000D01*
X115410000Y-116610000D02*
X115460000Y-116560000D01*
X88110000Y-100116000D02*
X94826000Y-100116000D01*
X115620000Y-59590000D02*
X115520000Y-59490000D01*
X93666500Y-33340000D02*
X92895000Y-32568500D01*
X115460000Y-100100000D02*
X115470000Y-100090000D01*
X115370000Y-115880000D02*
X115445000Y-115955000D01*
X94411000Y-47411000D02*
X94411000Y-34266134D01*
X94910000Y-100200000D02*
X94760000Y-100350000D01*
X75800000Y-115940000D02*
X75540000Y-116200000D01*
X95130000Y-116610000D02*
X115410000Y-116610000D01*
X68900000Y-80830000D02*
X75330000Y-80830000D01*
X115270000Y-80850000D02*
X115620000Y-80500000D01*
X115470000Y-80500000D02*
X115620000Y-80350000D01*
X94826000Y-100116000D02*
X94826000Y-100490000D01*
X94700000Y-100364000D02*
X94826000Y-100490000D01*
X88170000Y-80870000D02*
X94700000Y-80870000D01*
X94700000Y-80870000D02*
X94700000Y-80970000D01*
X115620000Y-80350000D02*
X115620000Y-59590000D01*
X94411000Y-47411000D02*
X94411000Y-36847286D01*
X109450000Y-59490000D02*
X115520000Y-59490000D01*
X107350000Y-61590000D02*
X109450000Y-59490000D01*
X88120000Y-39514315D02*
X88120000Y-61580000D01*
X94826000Y-100116000D02*
X94910000Y-100200000D01*
X100060000Y-53060000D02*
X94411000Y-47411000D01*
X68870000Y-100150000D02*
X74950000Y-100150000D01*
X75950000Y-116610000D02*
X95130000Y-116610000D01*
X115370000Y-100100000D02*
X115460000Y-100100000D01*
X94600000Y-80870000D02*
X94700000Y-80970000D01*
X94826000Y-100490000D02*
X94826000Y-116306000D01*
X88120000Y-61580000D02*
X94600000Y-61580000D01*
X115460000Y-116560000D02*
X115460000Y-100100000D01*
X115520000Y-59490000D02*
X115570000Y-59490000D01*
X107430000Y-80850000D02*
X115270000Y-80850000D01*
X75800000Y-101000000D02*
X75800000Y-115940000D01*
X74950000Y-100150000D02*
X75800000Y-101000000D01*
X99985000Y-53060000D02*
X100060000Y-53060000D01*
X94150214Y-36586500D02*
X91047815Y-36586500D01*
X94411000Y-33901000D02*
X93850000Y-33340000D01*
X94760000Y-116180000D02*
X95070000Y-116490000D01*
X93850000Y-33340000D02*
X93666500Y-33340000D01*
X115470000Y-100090000D02*
X115470000Y-80500000D01*
X94411000Y-36847286D02*
X94150214Y-36586500D01*
X92895000Y-32568500D02*
X92060000Y-32568500D01*
X94826000Y-116306000D02*
X95130000Y-116610000D01*
X100060000Y-52620000D02*
X100060000Y-53060000D01*
X91047815Y-36586500D02*
X88120000Y-39514315D01*
X94411000Y-34266134D02*
X92804183Y-32659317D01*
X75540000Y-116200000D02*
X75950000Y-116610000D01*
X115620000Y-80500000D02*
X115620000Y-80350000D01*
X107430000Y-100100000D02*
X115370000Y-100100000D01*
X94600000Y-61580000D02*
X94600000Y-80870000D01*
%TO.N,+5V*%
X92060000Y-30028500D02*
X88042000Y-34046500D01*
X74264971Y-34046500D02*
X69930000Y-38381471D01*
X92895000Y-30028500D02*
X103560000Y-40693500D01*
X88042000Y-34046500D02*
X74264971Y-34046500D01*
X69930000Y-38381471D02*
X69930000Y-51630000D01*
X103560000Y-40693500D02*
X103560000Y-51310000D01*
%TO.N,Net-(D1-DOUT)*%
X94315899Y-28566500D02*
X62337815Y-28566500D01*
X105060000Y-39310600D02*
X94315899Y-28566500D01*
X100060000Y-51310000D02*
X100155000Y-51310000D01*
X100060000Y-51385000D02*
X100060000Y-51310000D01*
X104660000Y-53785000D02*
X102460000Y-53785000D01*
X73520000Y-53540000D02*
X73370000Y-53540000D01*
X58510000Y-32394315D02*
X58510000Y-81309899D01*
X102460000Y-53785000D02*
X100060000Y-51385000D01*
X63950000Y-83949899D02*
X63950000Y-82790101D01*
X62337815Y-28566500D02*
X58510000Y-32394315D01*
X73210000Y-53380000D02*
X69930000Y-53380000D01*
X63129899Y-84770000D02*
X63950000Y-83949899D01*
X63950000Y-82790101D02*
X73520000Y-73220101D01*
X73520000Y-73220101D02*
X73520000Y-53540000D01*
X58510000Y-81309899D02*
X61970101Y-84770000D01*
X104660000Y-53785000D02*
X105060000Y-53385000D01*
X73370000Y-53540000D02*
X73210000Y-53380000D01*
X61970101Y-84770000D02*
X63129899Y-84770000D01*
X105060000Y-53385000D02*
X105060000Y-39310600D01*
%TD*%
M02*
