%TF.GenerationSoftware,KiCad,Pcbnew,10.0.5*%
%TF.CreationDate,2026-08-28T11:09:44+05:30*%
%TF.ProjectId,the_hackpad_v1,7468655f-6861-4636-9b70-61645f76312e,rev?*%
%TF.SameCoordinates,Original*%
%TF.FileFunction,Soldermask,Bot*%
%TF.FilePolarity,Negative*%
%FSLAX46Y46*%
G04 Gerber Fmt 4.6, Leading zero omitted, Abs format (unit mm)*
G04 Created by KiCad (PCBNEW 10.0.5) date 2026-08-28 11:09:44*
%MOMM*%
%LPD*%
G01*
G04 APERTURE LIST*
%ADD10C,1.524000*%
%ADD11C,1.700000*%
%ADD12C,4.000000*%
%ADD13C,2.200000*%
G04 APERTURE END LIST*
D10*
%TO.C,U1*%
X76820000Y-30028500D03*
X76820000Y-32568500D03*
X76820000Y-35108500D03*
X76820000Y-37648500D03*
X76820000Y-40188500D03*
X76820000Y-42728500D03*
X76820000Y-45268500D03*
X92060000Y-45268500D03*
X92060000Y-42728500D03*
X92060000Y-40188500D03*
X92060000Y-37648500D03*
X92060000Y-35108500D03*
X92060000Y-32568500D03*
X92060000Y-30028500D03*
%TD*%
D11*
%TO.C,SW7*%
X99730000Y-66670000D03*
D12*
X104810000Y-66670000D03*
D11*
X109890000Y-66670000D03*
D13*
X107350000Y-61590000D03*
X101000000Y-64130000D03*
%TD*%
D11*
%TO.C,SW4*%
X80500000Y-66660000D03*
D12*
X85580000Y-66660000D03*
D11*
X90660000Y-66660000D03*
D13*
X88120000Y-61580000D03*
X81770000Y-64120000D03*
%TD*%
D11*
%TO.C,SW5*%
X80550000Y-85950000D03*
D12*
X85630000Y-85950000D03*
D11*
X90710000Y-85950000D03*
D13*
X88170000Y-80870000D03*
X81820000Y-83410000D03*
%TD*%
D11*
%TO.C,SW6*%
X99810000Y-105180000D03*
D12*
X104890000Y-105180000D03*
D11*
X109970000Y-105180000D03*
D13*
X107430000Y-100100000D03*
X101080000Y-102640000D03*
%TD*%
D11*
%TO.C,SW8*%
X61280000Y-85910000D03*
D12*
X66360000Y-85910000D03*
D11*
X71440000Y-85910000D03*
D13*
X68900000Y-80830000D03*
X62550000Y-83370000D03*
%TD*%
D11*
%TO.C,SW1*%
X61277500Y-66675000D03*
D12*
X66357500Y-66675000D03*
D11*
X71437500Y-66675000D03*
D13*
X68897500Y-61595000D03*
X62547500Y-64135000D03*
%TD*%
D11*
%TO.C,SW9*%
X99810000Y-85930000D03*
D12*
X104890000Y-85930000D03*
D11*
X109970000Y-85930000D03*
D13*
X107430000Y-80850000D03*
X101080000Y-83390000D03*
%TD*%
D11*
%TO.C,SW2*%
X61250000Y-105230000D03*
D12*
X66330000Y-105230000D03*
D11*
X71410000Y-105230000D03*
D13*
X68870000Y-100150000D03*
X62520000Y-102690000D03*
%TD*%
D11*
%TO.C,SW3*%
X80490000Y-105196000D03*
D12*
X85570000Y-105196000D03*
D11*
X90650000Y-105196000D03*
D13*
X88110000Y-100116000D03*
X81760000Y-102656000D03*
%TD*%
M02*
